0
SECTION
2
HEADER
0
ENDSEC
0
SECTION
2
TABLES
0
ENDSEC
0
SECTION
2
BLOCKS
0
ENDSEC
0
SECTION
2
ENTITIES
0
POLYLINE
8
0
66
1
0
VERTEX
8
0
10
-0.869062
20
0.898594
0
VERTEX
8
0
10
0.251719
20
0.898594
0
VERTEX
8
0
10
0.209531
20
0.881719
0
VERTEX
8
0
10
0.184219
20
0.877500
0
VERTEX
8
0
10
0.158906
20
0.878906
0
VERTEX
8
0
10
0.130781
20
0.892969
0
VERTEX
8
0
10
0.118125
20
0.894375
0
VERTEX
8
0
10
0.101250
20
0.890156
0
VERTEX
8
0
10
0.075937
20
0.873281
0
VERTEX
8
0
10
0.030937
20
0.873281
0
VERTEX
8
0
10
-0.001406
20
0.885937
0
VERTEX
8
0
10
-0.042187
20
0.891562
0
VERTEX
8
0
10
-0.054844
20
0.887344
0
VERTEX
8
0
10
-0.066094
20
0.869062
0
VERTEX
8
0
10
-0.099844
20
0.869062
0
VERTEX
8
0
10
-0.116719
20
0.859219
0
VERTEX
8
0
10
-0.192656
20
0.863437
0
VERTEX
8
0
10
-0.206719
20
0.852187
0
VERTEX
8
0
10
-0.208125
20
0.839531
0
VERTEX
8
0
10
-0.194062
20
0.829688
0
VERTEX
8
0
10
-0.174375
20
0.825469
0
VERTEX
8
0
10
-0.170156
20
0.805781
0
VERTEX
8
0
10
-0.165937
20
0.801562
0
VERTEX
8
0
10
-0.158906
20
0.815625
0
VERTEX
8
0
10
-0.158906
20
0.826875
0
VERTEX
8
0
10
-0.153281
20
0.824062
0
VERTEX
8
0
10
-0.144844
20
0.808594
0
VERTEX
8
0
10
-0.140625
20
0.811406
0
VERTEX
8
0
10
-0.133594
20
0.826875
0
VERTEX
8
0
10
-0.129375
20
0.828281
0
VERTEX
8
0
10
-0.127969
20
0.819844
0
VERTEX
8
0
10
-0.123750
20
0.817031
0
VERTEX
8
0
10
-0.116719
20
0.829688
0
VERTEX
8
0
10
-0.095625
20
0.835313
0
VERTEX
8
0
10
-0.064687
20
0.833906
0
VERTEX
8
0
10
-0.052031
20
0.828281
0
VERTEX
8
0
10
-0.043594
20
0.819844
0
VERTEX
8
0
10
-0.045000
20
0.802969
0
VERTEX
8
0
10
-0.057656
20
0.787500
0
VERTEX
8
0
10
-0.075937
20
0.802969
0
VERTEX
8
0
10
-0.080156
20
0.801562
0
VERTEX
8
0
10
-0.075937
20
0.784687
0
VERTEX
8
0
10
-0.068906
20
0.780469
0
VERTEX
8
0
10
-0.074531
20
0.776250
0
VERTEX
8
0
10
-0.099844
20
0.798750
0
VERTEX
8
0
10
-0.101250
20
0.791719
0
VERTEX
8
0
10
-0.092812
20
0.773438
0
VERTEX
8
0
10
-0.094219
20
0.769219
0
VERTEX
8
0
10
-0.104063
20
0.772031
0
VERTEX
8
0
10
-0.119531
20
0.793125
0
VERTEX
8
0
10
-0.122344
20
0.790312
0
VERTEX
8
0
10
-0.120937
20
0.780469
0
VERTEX
8
0
10
-0.112500
20
0.763594
0
VERTEX
8
0
10
-0.116719
20
0.757969
0
VERTEX
8
0
10
-0.135000
20
0.783281
0
VERTEX
8
0
10
-0.137813
20
0.774844
0
VERTEX
8
0
10
-0.135000
20
0.770625
0
VERTEX
8
0
10
-0.136406
20
0.755156
0
VERTEX
8
0
10
-0.133594
20
0.749531
0
VERTEX
8
0
10
-0.140625
20
0.755156
0
VERTEX
8
0
10
-0.150469
20
0.774844
0
VERTEX
8
0
10
-0.153281
20
0.777656
0
VERTEX
8
0
10
-0.157500
20
0.774844
0
VERTEX
8
0
10
-0.156094
20
0.750937
0
VERTEX
8
0
10
-0.153281
20
0.746719
0
VERTEX
8
0
10
-0.144844
20
0.743906
0
VERTEX
8
0
10
-0.158906
20
0.736875
0
VERTEX
8
0
10
-0.167344
20
0.748125
0
VERTEX
8
0
10
-0.172969
20
0.749531
0
VERTEX
8
0
10
-0.175781
20
0.746719
0
VERTEX
8
0
10
-0.174375
20
0.739687
0
VERTEX
8
0
10
-0.167344
20
0.731250
0
VERTEX
8
0
10
-0.170156
20
0.711562
0
VERTEX
8
0
10
-0.163125
20
0.698906
0
VERTEX
8
0
10
-0.158906
20
0.697500
0
VERTEX
8
0
10
-0.153281
20
0.703125
0
VERTEX
8
0
10
-0.153281
20
0.720000
0
VERTEX
8
0
10
-0.132187
20
0.707344
0
VERTEX
8
0
10
-0.123750
20
0.704531
0
VERTEX
8
0
10
-0.116719
20
0.705937
0
VERTEX
8
0
10
-0.113906
20
0.708750
0
VERTEX
8
0
10
-0.115312
20
0.715781
0
VERTEX
8
0
10
-0.126562
20
0.722812
0
VERTEX
8
0
10
-0.129375
20
0.728437
0
VERTEX
8
0
10
-0.115312
20
0.735469
0
VERTEX
8
0
10
-0.090000
20
0.735469
0
VERTEX
8
0
10
-0.082969
20
0.731250
0
VERTEX
8
0
10
-0.060469
20
0.729844
0
VERTEX
8
0
10
-0.029531
20
0.720000
0
VERTEX
8
0
10
-0.001406
20
0.717187
0
VERTEX
8
0
10
-0.007031
20
0.725625
0
VERTEX
8
0
10
-0.036562
20
0.734062
0
VERTEX
8
0
10
-0.064687
20
0.749531
0
VERTEX
8
0
10
-0.032344
20
0.750937
0
VERTEX
8
0
10
-0.009844
20
0.746719
0
VERTEX
8
0
10
0.016875
20
0.736875
0
VERTEX
8
0
10
0.018281
20
0.739687
0
VERTEX
8
0
10
0.011250
20
0.746719
0
VERTEX
8
0
10
-0.030937
20
0.779062
0
VERTEX
8
0
10
0.001406
20
0.773438
0
VERTEX
8
0
10
0.039375
20
0.749531
0
VERTEX
8
0
10
0.066094
20
0.745312
0
VERTEX
8
0
10
0.068906
20
0.748125
0
VERTEX
8
0
10
0.035156
20
0.780469
0
VERTEX
8
0
10
0.023906
20
0.801562
0
VERTEX
8
0
10
0.082969
20
0.755156
0
VERTEX
8
0
10
0.084375
20
0.718594
0
VERTEX
8
0
10
0.099844
20
0.694688
0
VERTEX
8
0
10
0.097031
20
0.686250
0
VERTEX
8
0
10
0.081562
20
0.669375
0
VERTEX
8
0
10
0.075937
20
0.656719
0
VERTEX
8
0
10
0.074531
20
0.644062
0
VERTEX
8
0
10
0.056250
20
0.632812
0
VERTEX
8
0
10
0.050625
20
0.617344
0
VERTEX
8
0
10
0.036562
20
0.604687
0
VERTEX
8
0
10
0.025312
20
0.599062
0
VERTEX
8
0
10
-0.001406
20
0.594844
0
VERTEX
8
0
10
-0.007031
20
0.587812
0
VERTEX
8
0
10
-0.008438
20
0.573750
0
VERTEX
8
0
10
-0.015469
20
0.563906
0
VERTEX
8
0
10
-0.057656
20
0.572344
0
VERTEX
8
0
10
-0.060469
20
0.569531
0
VERTEX
8
0
10
-0.059062
20
0.551250
0
VERTEX
8
0
10
-0.078750
20
0.530156
0
VERTEX
8
0
10
-0.087188
20
0.525937
0
VERTEX
8
0
10
-0.097031
20
0.525937
0
VERTEX
8
0
10
-0.115312
20
0.540000
0
VERTEX
8
0
10
-0.119531
20
0.511875
0
VERTEX
8
0
10
-0.127969
20
0.493594
0
VERTEX
8
0
10
-0.137813
20
0.479531
0
VERTEX
8
0
10
-0.157500
20
0.464062
0
VERTEX
8
0
10
-0.161719
20
0.466875
0
VERTEX
8
0
10
-0.163125
20
0.503437
0
VERTEX
8
0
10
-0.154688
20
0.499219
0
VERTEX
8
0
10
-0.153281
20
0.487969
0
VERTEX
8
0
10
-0.142031
20
0.483750
0
VERTEX
8
0
10
-0.136406
20
0.492188
0
VERTEX
8
0
10
-0.137813
20
0.518906
0
VERTEX
8
0
10
-0.149062
20
0.559688
0
VERTEX
8
0
10
-0.150469
20
0.594844
0
VERTEX
8
0
10
-0.143437
20
0.587812
0
VERTEX
8
0
10
-0.130781
20
0.561094
0
VERTEX
8
0
10
-0.127969
20
0.547031
0
VERTEX
8
0
10
-0.122344
20
0.541406
0
VERTEX
8
0
10
-0.116719
20
0.548438
0
VERTEX
8
0
10
-0.115312
20
0.556875
0
VERTEX
8
0
10
-0.115312
20
0.582187
0
VERTEX
8
0
10
-0.119531
20
0.600469
0
VERTEX
8
0
10
-0.137813
20
0.639844
0
VERTEX
8
0
10
-0.170156
20
0.660937
0
VERTEX
8
0
10
-0.205312
20
0.696094
0
VERTEX
8
0
10
-0.201094
20
0.697500
0
VERTEX
8
0
10
-0.174375
20
0.680625
0
VERTEX
8
0
10
-0.167344
20
0.679219
0
VERTEX
8
0
10
-0.165937
20
0.686250
0
VERTEX
8
0
10
-0.177187
20
0.703125
0
VERTEX
8
0
10
-0.205312
20
0.722812
0
VERTEX
8
0
10
-0.239062
20
0.727031
0
VERTEX
8
0
10
-0.243281
20
0.735469
0
VERTEX
8
0
10
-0.234844
20
0.735469
0
VERTEX
8
0
10
-0.227813
20
0.739687
0
VERTEX
8
0
10
-0.227813
20
0.745312
0
VERTEX
8
0
10
-0.237656
20
0.756563
0
VERTEX
8
0
10
-0.247500
20
0.757969
0
VERTEX
8
0
10
-0.257344
20
0.755156
0
VERTEX
8
0
10
-0.250312
20
0.759375
0
VERTEX
8
0
10
-0.257344
20
0.767813
0
VERTEX
8
0
10
-0.270000
20
0.763594
0
VERTEX
8
0
10
-0.295312
20
0.763594
0
VERTEX
8
0
10
-0.310781
20
0.769219
0
VERTEX
8
0
10
-0.306563
20
0.773438
0
VERTEX
8
0
10
-0.292500
20
0.777656
0
VERTEX
8
0
10
-0.286875
20
0.783281
0
VERTEX
8
0
10
-0.289687
20
0.788906
0
VERTEX
8
0
10
-0.316406
20
0.790312
0
VERTEX
8
0
10
-0.329062
20
0.783281
0
VERTEX
8
0
10
-0.340312
20
0.781875
0
VERTEX
8
0
10
-0.305156
20
0.822656
0
VERTEX
8
0
10
-0.291094
20
0.843750
0
VERTEX
8
0
10
-0.285469
20
0.857812
0
VERTEX
8
0
10
-0.289687
20
0.866250
0
VERTEX
8
0
10
-0.302344
20
0.846562
0
VERTEX
8
0
10
-0.322031
20
0.828281
0
VERTEX
8
0
10
-0.385313
20
0.798750
0
VERTEX
8
0
10
-0.424687
20
0.756563
0
VERTEX
8
0
10
-0.424687
20
0.752344
0
VERTEX
8
0
10
-0.420469
20
0.749531
0
VERTEX
8
0
10
-0.441562
20
0.748125
0
VERTEX
8
0
10
-0.517500
20
0.711562
0
VERTEX
8
0
10
-0.520312
20
0.708750
0
VERTEX
8
0
10
-0.520312
20
0.682031
0
VERTEX
8
0
10
-0.569531
20
0.642656
0
VERTEX
8
0
10
-0.590625
20
0.637031
0
VERTEX
8
0
10
-0.603281
20
0.630000
0
VERTEX
8
0
10
-0.620156
20
0.613125
0
VERTEX
8
0
10
-0.631406
20
0.590625
0
VERTEX
8
0
10
-0.621563
20
0.579375
0
VERTEX
8
0
10
-0.606094
20
0.577969
0
VERTEX
8
0
10
-0.579375
20
0.549844
0
VERTEX
8
0
10
-0.570937
20
0.545625
0
VERTEX
8
0
10
-0.566719
20
0.549844
0
VERTEX
8
0
10
-0.580781
20
0.577969
0
VERTEX
8
0
10
-0.580781
20
0.592031
0
VERTEX
8
0
10
-0.573750
20
0.587812
0
VERTEX
8
0
10
-0.563906
20
0.573750
0
VERTEX
8
0
10
-0.558281
20
0.585000
0
VERTEX
8
0
10
-0.561094
20
0.607500
0
VERTEX
8
0
10
-0.556875
20
0.611719
0
VERTEX
8
0
10
-0.547031
20
0.589219
0
VERTEX
8
0
10
-0.538594
20
0.579375
0
VERTEX
8
0
10
-0.540000
20
0.617344
0
VERTEX
8
0
10
-0.534375
20
0.617344
0
VERTEX
8
0
10
-0.528750
20
0.603281
0
VERTEX
8
0
10
-0.523125
20
0.600469
0
VERTEX
8
0
10
-0.510469
20
0.620156
0
VERTEX
8
0
10
-0.510469
20
0.627188
0
VERTEX
8
0
10
-0.506250
20
0.634219
0
VERTEX
8
0
10
-0.499219
20
0.635625
0
VERTEX
8
0
10
-0.495000
20
0.630000
0
VERTEX
8
0
10
-0.490781
20
0.631406
0
VERTEX
8
0
10
-0.495000
20
0.651094
0
VERTEX
8
0
10
-0.486563
20
0.655312
0
VERTEX
8
0
10
-0.468281
20
0.655312
0
VERTEX
8
0
10
-0.507656
20
0.607500
0
VERTEX
8
0
10
-0.525937
20
0.593437
0
VERTEX
8
0
10
-0.562500
20
0.548438
0
VERTEX
8
0
10
-0.559688
20
0.542813
0
VERTEX
8
0
10
-0.544219
20
0.530156
0
VERTEX
8
0
10
-0.516094
20
0.527344
0
VERTEX
8
0
10
-0.516094
20
0.503437
0
VERTEX
8
0
10
-0.504844
20
0.504844
0
VERTEX
8
0
10
-0.500625
20
0.509062
0
VERTEX
8
0
10
-0.500625
20
0.517500
0
VERTEX
8
0
10
-0.490781
20
0.504844
0
VERTEX
8
0
10
-0.483750
20
0.504844
0
VERTEX
8
0
10
-0.472500
20
0.511875
0
VERTEX
8
0
10
-0.480937
20
0.527344
0
VERTEX
8
0
10
-0.479531
20
0.551250
0
VERTEX
8
0
10
-0.397969
20
0.592031
0
VERTEX
8
0
10
-0.410625
20
0.600469
0
VERTEX
8
0
10
-0.442969
20
0.596250
0
VERTEX
8
0
10
-0.392344
20
0.618750
0
VERTEX
8
0
10
-0.374062
20
0.631406
0
VERTEX
8
0
10
-0.386719
20
0.635625
0
VERTEX
8
0
10
-0.409219
20
0.635625
0
VERTEX
8
0
10
-0.423281
20
0.641250
0
VERTEX
8
0
10
-0.383906
20
0.649687
0
VERTEX
8
0
10
-0.340312
20
0.652500
0
VERTEX
8
0
10
-0.326250
20
0.656719
0
VERTEX
8
0
10
-0.324844
20
0.660937
0
VERTEX
8
0
10
-0.374062
20
0.687656
0
VERTEX
8
0
10
-0.344531
20
0.697500
0
VERTEX
8
0
10
-0.330469
20
0.697500
0
VERTEX
8
0
10
-0.323437
20
0.684844
0
VERTEX
8
0
10
-0.296719
20
0.655312
0
VERTEX
8
0
10
-0.289687
20
0.651094
0
VERTEX
8
0
10
-0.272813
20
0.648281
0
VERTEX
8
0
10
-0.271406
20
0.639844
0
VERTEX
8
0
10
-0.254531
20
0.618750
0
VERTEX
8
0
10
-0.243281
20
0.589219
0
VERTEX
8
0
10
-0.243281
20
0.576562
0
VERTEX
8
0
10
-0.248906
20
0.556875
0
VERTEX
8
0
10
-0.244688
20
0.534375
0
VERTEX
8
0
10
-0.244688
20
0.511875
0
VERTEX
8
0
10
-0.258750
20
0.465469
0
VERTEX
8
0
10
-0.279844
20
0.420469
0
VERTEX
8
0
10
-0.270000
20
0.400781
0
VERTEX
8
0
10
-0.264375
20
0.395156
0
VERTEX
8
0
10
-0.257344
20
0.397969
0
VERTEX
8
0
10
-0.262969
20
0.383906
0
VERTEX
8
0
10
-0.272813
20
0.393750
0
VERTEX
8
0
10
-0.278438
20
0.393750
0
VERTEX
8
0
10
-0.279844
20
0.350156
0
VERTEX
8
0
10
-0.285469
20
0.336094
0
VERTEX
8
0
10
-0.285469
20
0.322031
0
VERTEX
8
0
10
-0.316406
20
0.338906
0
VERTEX
8
0
10
-0.326250
20
0.354375
0
VERTEX
8
0
10
-0.319219
20
0.355781
0
VERTEX
8
0
10
-0.312188
20
0.351562
0
VERTEX
8
0
10
-0.293906
20
0.351562
0
VERTEX
8
0
10
-0.291094
20
0.354375
0
VERTEX
8
0
10
-0.292500
20
0.362812
0
VERTEX
8
0
10
-0.295312
20
0.371250
0
VERTEX
8
0
10
-0.302344
20
0.378281
0
VERTEX
8
0
10
-0.362812
20
0.389531
0
VERTEX
8
0
10
-0.367031
20
0.393750
0
VERTEX
8
0
10
-0.371250
20
0.407812
0
VERTEX
8
0
10
-0.347344
20
0.407812
0
VERTEX
8
0
10
-0.336094
20
0.412031
0
VERTEX
8
0
10
-0.348750
20
0.435937
0
VERTEX
8
0
10
-0.376875
20
0.435937
0
VERTEX
8
0
10
-0.403594
20
0.431719
0
VERTEX
8
0
10
-0.427500
20
0.444375
0
VERTEX
8
0
10
-0.388125
20
0.451406
0
VERTEX
8
0
10
-0.386719
20
0.455625
0
VERTEX
8
0
10
-0.402187
20
0.468281
0
VERTEX
8
0
10
-0.434531
20
0.468281
0
VERTEX
8
0
10
-0.452813
20
0.458437
0
VERTEX
8
0
10
-0.464062
20
0.458437
0
VERTEX
8
0
10
-0.492188
20
0.468281
0
VERTEX
8
0
10
-0.452813
20
0.483750
0
VERTEX
8
0
10
-0.440156
20
0.485156
0
VERTEX
8
0
10
-0.437344
20
0.490781
0
VERTEX
8
0
10
-0.448594
20
0.496406
0
VERTEX
8
0
10
-0.478125
20
0.497812
0
VERTEX
8
0
10
-0.499219
20
0.495000
0
VERTEX
8
0
10
-0.532969
20
0.471094
0
VERTEX
8
0
10
-0.565312
20
0.466875
0
VERTEX
8
0
10
-0.531562
20
0.483750
0
VERTEX
8
0
10
-0.524531
20
0.490781
0
VERTEX
8
0
10
-0.524531
20
0.495000
0
VERTEX
8
0
10
-0.532969
20
0.502031
0
VERTEX
8
0
10
-0.569531
20
0.496406
0
VERTEX
8
0
10
-0.586406
20
0.487969
0
VERTEX
8
0
10
-0.597656
20
0.476719
0
VERTEX
8
0
10
-0.607500
20
0.458437
0
VERTEX
8
0
10
-0.628594
20
0.450000
0
VERTEX
8
0
10
-0.631406
20
0.450000
0
VERTEX
8
0
10
-0.628594
20
0.468281
0
VERTEX
8
0
10
-0.590625
20
0.495000
0
VERTEX
8
0
10
-0.592031
20
0.497812
0
VERTEX
8
0
10
-0.614531
20
0.496406
0
VERTEX
8
0
10
-0.628594
20
0.489375
0
VERTEX
8
0
10
-0.666562
20
0.455625
0
VERTEX
8
0
10
-0.696094
20
0.433125
0
VERTEX
8
0
10
-0.707344
20
0.428906
0
VERTEX
8
0
10
-0.712969
20
0.421875
0
VERTEX
8
0
10
-0.710156
20
0.442969
0
VERTEX
8
0
10
-0.686250
20
0.466875
0
VERTEX
8
0
10
-0.694688
20
0.483750
0
VERTEX
8
0
10
-0.680625
20
0.506250
0
VERTEX
8
0
10
-0.673594
20
0.535781
0
VERTEX
8
0
10
-0.675000
20
0.544219
0
VERTEX
8
0
10
-0.690469
20
0.572344
0
VERTEX
8
0
10
-0.694688
20
0.575156
0
VERTEX
8
0
10
-0.698906
20
0.566719
0
VERTEX
8
0
10
-0.701719
20
0.540000
0
VERTEX
8
0
10
-0.708750
20
0.517500
0
VERTEX
8
0
10
-0.721406
20
0.499219
0
VERTEX
8
0
10
-0.738281
20
0.482344
0
VERTEX
8
0
10
-0.736875
20
0.478125
0
VERTEX
8
0
10
-0.727031
20
0.482344
0
VERTEX
8
0
10
-0.728437
20
0.478125
0
VERTEX
8
0
10
-0.739687
20
0.473906
0
VERTEX
8
0
10
-0.745312
20
0.468281
0
VERTEX
8
0
10
-0.766406
20
0.407812
0
VERTEX
8
0
10
-0.800156
20
0.361406
0
VERTEX
8
0
10
-0.825469
20
0.312188
0
VERTEX
8
0
10
-0.815625
20
0.281250
0
VERTEX
8
0
10
-0.829688
20
0.251719
0
VERTEX
8
0
10
-0.835313
20
0.215156
0
VERTEX
8
0
10
-0.846562
20
0.202500
0
VERTEX
8
0
10
-0.849375
20
0.194062
0
VERTEX
8
0
10
-0.847969
20
0.164531
0
VERTEX
8
0
10
-0.839531
20
0.147656
0
VERTEX
8
0
10
-0.819844
20
0.146250
0
VERTEX
8
0
10
-0.800156
20
0.135000
0
VERTEX
8
0
10
-0.790312
20
0.136406
0
VERTEX
8
0
10
-0.786094
20
0.139219
0
VERTEX
8
0
10
-0.786094
20
0.143437
0
VERTEX
8
0
10
-0.808594
20
0.154688
0
VERTEX
8
0
10
-0.815625
20
0.163125
0
VERTEX
8
0
10
-0.815625
20
0.165937
0
VERTEX
8
0
10
-0.804375
20
0.171563
0
VERTEX
8
0
10
-0.812812
20
0.181406
0
VERTEX
8
0
10
-0.810000
20
0.184219
0
VERTEX
8
0
10
-0.800156
20
0.184219
0
VERTEX
8
0
10
-0.795937
20
0.180000
0
VERTEX
8
0
10
-0.791719
20
0.181406
0
VERTEX
8
0
10
-0.791719
20
0.185625
0
VERTEX
8
0
10
-0.804375
20
0.201094
0
VERTEX
8
0
10
-0.804375
20
0.208125
0
VERTEX
8
0
10
-0.798750
20
0.208125
0
VERTEX
8
0
10
-0.795937
20
0.203906
0
VERTEX
8
0
10
-0.791719
20
0.205312
0
VERTEX
8
0
10
-0.795937
20
0.217969
0
VERTEX
8
0
10
-0.794531
20
0.225000
0
VERTEX
8
0
10
-0.783281
20
0.219375
0
VERTEX
8
0
10
-0.776250
20
0.220781
0
VERTEX
8
0
10
-0.784687
20
0.237656
0
VERTEX
8
0
10
-0.784687
20
0.241875
0
VERTEX
8
0
10
-0.776250
20
0.244688
0
VERTEX
8
0
10
-0.779062
20
0.168750
0
VERTEX
8
0
10
-0.772031
20
0.165937
0
VERTEX
8
0
10
-0.769219
20
0.168750
0
VERTEX
8
0
10
-0.772031
20
0.175781
0
VERTEX
8
0
10
-0.763594
20
0.192656
0
VERTEX
8
0
10
-0.760781
20
0.230625
0
VERTEX
8
0
10
-0.753750
20
0.237656
0
VERTEX
8
0
10
-0.749531
20
0.232031
0
VERTEX
8
0
10
-0.757969
20
0.220781
0
VERTEX
8
0
10
-0.753750
20
0.217969
0
VERTEX
8
0
10
-0.742500
20
0.217969
0
VERTEX
8
0
10
-0.741094
20
0.213750
0
VERTEX
8
0
10
-0.752344
20
0.210938
0
VERTEX
8
0
10
-0.755156
20
0.206719
0
VERTEX
8
0
10
-0.746719
20
0.199687
0
VERTEX
8
0
10
-0.736875
20
0.198281
0
VERTEX
8
0
10
-0.757969
20
0.191250
0
VERTEX
8
0
10
-0.759375
20
0.184219
0
VERTEX
8
0
10
-0.752344
20
0.180000
0
VERTEX
8
0
10
-0.735469
20
0.177187
0
VERTEX
8
0
10
-0.735469
20
0.170156
0
VERTEX
8
0
10
-0.745312
20
0.165937
0
VERTEX
8
0
10
-0.749531
20
0.160312
0
VERTEX
8
0
10
-0.743906
20
0.156094
0
VERTEX
8
0
10
-0.732656
20
0.156094
0
VERTEX
8
0
10
-0.749531
20
0.140625
0
VERTEX
8
0
10
-0.756563
20
0.140625
0
VERTEX
8
0
10
-0.757969
20
0.137813
0
VERTEX
8
0
10
-0.749531
20
0.130781
0
VERTEX
8
0
10
-0.720000
20
0.132187
0
VERTEX
8
0
10
-0.700313
20
0.123750
0
VERTEX
8
0
10
-0.691875
20
0.125156
0
VERTEX
8
0
10
-0.666562
20
0.136406
0
VERTEX
8
0
10
-0.662344
20
0.142031
0
VERTEX
8
0
10
-0.665156
20
0.144844
0
VERTEX
8
0
10
-0.691875
20
0.146250
0
VERTEX
8
0
10
-0.683437
20
0.161719
0
VERTEX
8
0
10
-0.698906
20
0.167344
0
VERTEX
8
0
10
-0.707344
20
0.175781
0
VERTEX
8
0
10
-0.710156
20
0.182812
0
VERTEX
8
0
10
-0.708750
20
0.188437
0
VERTEX
8
0
10
-0.694688
20
0.212344
0
VERTEX
8
0
10
-0.660937
20
0.248906
0
VERTEX
8
0
10
-0.655312
20
0.258750
0
VERTEX
8
0
10
-0.665156
20
0.260156
0
VERTEX
8
0
10
-0.670781
20
0.255937
0
VERTEX
8
0
10
-0.680625
20
0.254531
0
VERTEX
8
0
10
-0.694688
20
0.243281
0
VERTEX
8
0
10
-0.686250
20
0.253125
0
VERTEX
8
0
10
-0.665156
20
0.292500
0
VERTEX
8
0
10
-0.669375
20
0.296719
0
VERTEX
8
0
10
-0.673594
20
0.295312
0
VERTEX
8
0
10
-0.705937
20
0.267187
0
VERTEX
8
0
10
-0.705937
20
0.281250
0
VERTEX
8
0
10
-0.690469
20
0.293906
0
VERTEX
8
0
10
-0.627188
20
0.330469
0
VERTEX
8
0
10
-0.618750
20
0.341719
0
VERTEX
8
0
10
-0.625781
20
0.344531
0
VERTEX
8
0
10
-0.638437
20
0.338906
0
VERTEX
8
0
10
-0.660937
20
0.336094
0
VERTEX
8
0
10
-0.666562
20
0.331875
0
VERTEX
8
0
10
-0.704531
20
0.331875
0
VERTEX
8
0
10
-0.666562
20
0.337500
0
VERTEX
8
0
10
-0.628594
20
0.365625
0
VERTEX
8
0
10
-0.621563
20
0.365625
0
VERTEX
8
0
10
-0.614531
20
0.360000
0
VERTEX
8
0
10
-0.604687
20
0.360000
0
VERTEX
8
0
10
-0.570937
20
0.375469
0
VERTEX
8
0
10
-0.542813
20
0.379688
0
VERTEX
8
0
10
-0.514687
20
0.357187
0
VERTEX
8
0
10
-0.507656
20
0.357187
0
VERTEX
8
0
10
-0.489375
20
0.365625
0
VERTEX
8
0
10
-0.482344
20
0.354375
0
VERTEX
8
0
10
-0.479531
20
0.336094
0
VERTEX
8
0
10
-0.475312
20
0.331875
0
VERTEX
8
0
10
-0.468281
20
0.331875
0
VERTEX
8
0
10
-0.427500
20
0.316406
0
VERTEX
8
0
10
-0.417656
20
0.305156
0
VERTEX
8
0
10
-0.413437
20
0.292500
0
VERTEX
8
0
10
-0.430312
20
0.274219
0
VERTEX
8
0
10
-0.420469
20
0.268594
0
VERTEX
8
0
10
-0.397969
20
0.267187
0
VERTEX
8
0
10
-0.386719
20
0.253125
0
VERTEX
8
0
10
-0.386719
20
0.233437
0
VERTEX
8
0
10
-0.383906
20
0.229219
0
VERTEX
8
0
10
-0.386719
20
0.206719
0
VERTEX
8
0
10
-0.369844
20
0.199687
0
VERTEX
8
0
10
-0.361406
20
0.189844
0
VERTEX
8
0
10
-0.354375
20
0.174375
0
VERTEX
8
0
10
-0.354375
20
0.163125
0
VERTEX
8
0
10
-0.369844
20
0.142031
0
VERTEX
8
0
10
-0.375469
20
0.126562
0
VERTEX
8
0
10
-0.372656
20
0.123750
0
VERTEX
8
0
10
-0.348750
20
0.119531
0
VERTEX
8
0
10
-0.330469
20
0.102656
0
VERTEX
8
0
10
-0.320625
20
0.075937
0
VERTEX
8
0
10
-0.322031
20
0.057656
0
VERTEX
8
0
10
-0.326250
20
0.057656
0
VERTEX
8
0
10
-0.329062
20
0.053437
0
VERTEX
8
0
10
-0.312188
20
0.023906
0
VERTEX
8
0
10
-0.303750
20
-0.018281
0
VERTEX
8
0
10
-0.292500
20
-0.037969
0
VERTEX
8
0
10
-0.284062
20
-0.080156
0
VERTEX
8
0
10
-0.271406
20
-0.105469
0
VERTEX
8
0
10
-0.239062
20
-0.133594
0
VERTEX
8
0
10
-0.223594
20
-0.158906
0
VERTEX
8
0
10
-0.232031
20
-0.158906
0
VERTEX
8
0
10
-0.243281
20
-0.153281
0
VERTEX
8
0
10
-0.289687
20
-0.119531
0
VERTEX
8
0
10
-0.331875
20
-0.077344
0
VERTEX
8
0
10
-0.365625
20
-0.033750
0
VERTEX
8
0
10
-0.396562
20
0.016875
0
VERTEX
8
0
10
-0.400781
20
0.040781
0
VERTEX
8
0
10
-0.405000
20
0.120937
0
VERTEX
8
0
10
-0.407812
20
0.132187
0
VERTEX
8
0
10
-0.417656
20
0.146250
0
VERTEX
8
0
10
-0.421875
20
0.168750
0
VERTEX
8
0
10
-0.433125
20
0.182812
0
VERTEX
8
0
10
-0.442969
20
0.188437
0
VERTEX
8
0
10
-0.468281
20
0.191250
0
VERTEX
8
0
10
-0.485156
20
0.187031
0
VERTEX
8
0
10
-0.486563
20
0.178594
0
VERTEX
8
0
10
-0.465469
20
0.164531
0
VERTEX
8
0
10
-0.462656
20
0.147656
0
VERTEX
8
0
10
-0.466875
20
0.142031
0
VERTEX
8
0
10
-0.476719
20
0.158906
0
VERTEX
8
0
10
-0.495000
20
0.160312
0
VERTEX
8
0
10
-0.500625
20
0.168750
0
VERTEX
8
0
10
-0.516094
20
0.177187
0
VERTEX
8
0
10
-0.540000
20
0.178594
0
VERTEX
8
0
10
-0.563906
20
0.170156
0
VERTEX
8
0
10
-0.573750
20
0.160312
0
VERTEX
8
0
10
-0.575156
20
0.150469
0
VERTEX
8
0
10
-0.570937
20
0.147656
0
VERTEX
8
0
10
-0.551250
20
0.147656
0
VERTEX
8
0
10
-0.535781
20
0.135000
0
VERTEX
8
0
10
-0.538594
20
0.132187
0
VERTEX
8
0
10
-0.545625
20
0.135000
0
VERTEX
8
0
10
-0.556875
20
0.132187
0
VERTEX
8
0
10
-0.563906
20
0.125156
0
VERTEX
8
0
10
-0.566719
20
0.115312
0
VERTEX
8
0
10
-0.585000
20
0.116719
0
VERTEX
8
0
10
-0.600469
20
0.109687
0
VERTEX
8
0
10
-0.614531
20
0.094219
0
VERTEX
8
0
10
-0.628594
20
0.061875
0
VERTEX
8
0
10
-0.627188
20
0.057656
0
VERTEX
8
0
10
-0.621563
20
0.057656
0
VERTEX
8
0
10
-0.596250
20
0.070312
0
VERTEX
8
0
10
-0.580781
20
0.070312
0
VERTEX
8
0
10
-0.551250
20
0.042187
0
VERTEX
8
0
10
-0.513281
20
0.021094
0
VERTEX
8
0
10
-0.509062
20
0.012656
0
VERTEX
8
0
10
-0.499219
20
0.007031
0
VERTEX
8
0
10
-0.476719
20
-0.018281
0
VERTEX
8
0
10
-0.468281
20
-0.042187
0
VERTEX
8
0
10
-0.465469
20
-0.071719
0
VERTEX
8
0
10
-0.479531
20
-0.118125
0
VERTEX
8
0
10
-0.473906
20
-0.135000
0
VERTEX
8
0
10
-0.461250
20
-0.151875
0
VERTEX
8
0
10
-0.475312
20
-0.161719
0
VERTEX
8
0
10
-0.493594
20
-0.164531
0
VERTEX
8
0
10
-0.502031
20
-0.167344
0
VERTEX
8
0
10
-0.504844
20
-0.171563
0
VERTEX
8
0
10
-0.486563
20
-0.182812
0
VERTEX
8
0
10
-0.465469
20
-0.189844
0
VERTEX
8
0
10
-0.455625
20
-0.189844
0
VERTEX
8
0
10
-0.447187
20
-0.185625
0
VERTEX
8
0
10
-0.424687
20
-0.161719
0
VERTEX
8
0
10
-0.417656
20
-0.164531
0
VERTEX
8
0
10
-0.412031
20
-0.158906
0
VERTEX
8
0
10
-0.406406
20
-0.143437
0
VERTEX
8
0
10
-0.403594
20
-0.102656
0
VERTEX
8
0
10
-0.393750
20
-0.102656
0
VERTEX
8
0
10
-0.357187
20
-0.154688
0
VERTEX
8
0
10
-0.295312
20
-0.215156
0
VERTEX
8
0
10
-0.264375
20
-0.237656
0
VERTEX
8
0
10
-0.226406
20
-0.258750
0
VERTEX
8
0
10
-0.177187
20
-0.279844
0
VERTEX
8
0
10
-0.149062
20
-0.288281
0
VERTEX
8
0
10
-0.149062
20
-0.313594
0
VERTEX
8
0
10
-0.156094
20
-0.323437
0
VERTEX
8
0
10
-0.181406
20
-0.336094
0
VERTEX
8
0
10
-0.181406
20
-0.341719
0
VERTEX
8
0
10
-0.175781
20
-0.347344
0
VERTEX
8
0
10
-0.158906
20
-0.345938
0
VERTEX
8
0
10
-0.129375
20
-0.333281
0
VERTEX
8
0
10
-0.082969
20
-0.279844
0
VERTEX
8
0
10
-0.070312
20
-0.255937
0
VERTEX
8
0
10
-0.064687
20
-0.237656
0
VERTEX
8
0
10
-0.052031
20
-0.219375
0
VERTEX
8
0
10
-0.023906
20
-0.194062
0
VERTEX
8
0
10
-0.009844
20
-0.191250
0
VERTEX
8
0
10
-0.009844
20
-0.247500
0
VERTEX
8
0
10
-0.001406
20
-0.296719
0
VERTEX
8
0
10
0.011250
20
-0.331875
0
VERTEX
8
0
10
0.039375
20
-0.371250
0
VERTEX
8
0
10
0.040781
20
-0.388125
0
VERTEX
8
0
10
0.037969
20
-0.399375
0
VERTEX
8
0
10
0.022500
20
-0.409219
0
VERTEX
8
0
10
-0.001406
20
-0.419063
0
VERTEX
8
0
10
-0.045000
20
-0.430312
0
VERTEX
8
0
10
-0.081562
20
-0.434531
0
VERTEX
8
0
10
-0.135000
20
-0.434531
0
VERTEX
8
0
10
-0.178594
20
-0.428906
0
VERTEX
8
0
10
-0.217969
20
-0.417656
0
VERTEX
8
0
10
-0.255937
20
-0.392344
0
VERTEX
8
0
10
-0.292500
20
-0.350156
0
VERTEX
8
0
10
-0.299531
20
-0.334687
0
VERTEX
8
0
10
-0.299531
20
-0.324844
0
VERTEX
8
0
10
-0.319219
20
-0.315000
0
VERTEX
8
0
10
-0.337500
20
-0.293906
0
VERTEX
8
0
10
-0.344531
20
-0.291094
0
VERTEX
8
0
10
-0.383906
20
-0.291094
0
VERTEX
8
0
10
-0.395156
20
-0.303750
0
VERTEX
8
0
10
-0.399375
20
-0.313594
0
VERTEX
8
0
10
-0.397969
20
-0.319219
0
VERTEX
8
0
10
-0.390937
20
-0.323437
0
VERTEX
8
0
10
-0.364219
20
-0.326250
0
VERTEX
8
0
10
-0.361406
20
-0.331875
0
VERTEX
8
0
10
-0.381094
20
-0.326250
0
VERTEX
8
0
10
-0.392344
20
-0.333281
0
VERTEX
8
0
10
-0.410625
20
-0.336094
0
VERTEX
8
0
10
-0.427500
20
-0.343125
0
VERTEX
8
0
10
-0.438750
20
-0.355781
0
VERTEX
8
0
10
-0.445781
20
-0.388125
0
VERTEX
8
0
10
-0.441562
20
-0.390937
0
VERTEX
8
0
10
-0.420469
20
-0.379688
0
VERTEX
8
0
10
-0.414844
20
-0.379688
0
VERTEX
8
0
10
-0.403594
20
-0.390937
0
VERTEX
8
0
10
-0.438750
20
-0.417656
0
VERTEX
8
0
10
-0.451406
20
-0.433125
0
VERTEX
8
0
10
-0.451406
20
-0.461250
0
VERTEX
8
0
10
-0.445781
20
-0.482344
0
VERTEX
8
0
10
-0.441562
20
-0.485156
0
VERTEX
8
0
10
-0.430312
20
-0.464062
0
VERTEX
8
0
10
-0.420469
20
-0.457031
0
VERTEX
8
0
10
-0.414844
20
-0.457031
0
VERTEX
8
0
10
-0.412031
20
-0.465469
0
VERTEX
8
0
10
-0.405000
20
-0.471094
0
VERTEX
8
0
10
-0.386719
20
-0.469687
0
VERTEX
8
0
10
-0.369844
20
-0.457031
0
VERTEX
8
0
10
-0.351562
20
-0.457031
0
VERTEX
8
0
10
-0.322031
20
-0.461250
0
VERTEX
8
0
10
-0.292500
20
-0.485156
0
VERTEX
8
0
10
-0.282656
20
-0.489375
0
VERTEX
8
0
10
-0.270000
20
-0.502031
0
VERTEX
8
0
10
-0.265781
20
-0.556875
0
VERTEX
8
0
10
-0.257344
20
-0.572344
0
VERTEX
8
0
10
-0.258750
20
-0.590625
0
VERTEX
8
0
10
-0.285469
20
-0.615938
0
VERTEX
8
0
10
-0.270000
20
-0.622969
0
VERTEX
8
0
10
-0.251719
20
-0.622969
0
VERTEX
8
0
10
-0.233437
20
-0.615938
0
VERTEX
8
0
10
-0.222187
20
-0.606094
0
VERTEX
8
0
10
-0.215156
20
-0.594844
0
VERTEX
8
0
10
-0.199687
20
-0.556875
0
VERTEX
8
0
10
-0.199687
20
-0.525937
0
VERTEX
8
0
10
-0.192656
20
-0.487969
0
VERTEX
8
0
10
-0.104063
20
-0.507656
0
VERTEX
8
0
10
-0.008438
20
-0.510469
0
VERTEX
8
0
10
0.049219
20
-0.503437
0
VERTEX
8
0
10
0.132187
20
-0.480937
0
VERTEX
8
0
10
0.137813
20
-0.493594
0
VERTEX
8
0
10
0.137813
20
-0.511875
0
VERTEX
8
0
10
0.132187
20
-0.525937
0
VERTEX
8
0
10
0.122344
20
-0.538594
0
VERTEX
8
0
10
0.136406
20
-0.541406
0
VERTEX
8
0
10
0.147656
20
-0.535781
0
VERTEX
8
0
10
0.164531
20
-0.520312
0
VERTEX
8
0
10
0.174375
20
-0.506250
0
VERTEX
8
0
10
0.180000
20
-0.490781
0
VERTEX
8
0
10
0.175781
20
-0.464062
0
VERTEX
8
0
10
0.182812
20
-0.451406
0
VERTEX
8
0
10
0.184219
20
-0.423281
0
VERTEX
8
0
10
0.181406
20
-0.406406
0
VERTEX
8
0
10
0.175781
20
-0.395156
0
VERTEX
8
0
10
0.175781
20
-0.364219
0
VERTEX
8
0
10
0.181406
20
-0.338906
0
VERTEX
8
0
10
0.191250
20
-0.320625
0
VERTEX
8
0
10
0.201094
20
-0.310781
0
VERTEX
8
0
10
0.216562
20
-0.303750
0
VERTEX
8
0
10
0.225000
20
-0.303750
0
VERTEX
8
0
10
0.226406
20
-0.309375
0
VERTEX
8
0
10
0.234844
20
-0.315000
0
VERTEX
8
0
10
0.243281
20
-0.326250
0
VERTEX
8
0
10
0.246094
20
-0.334687
0
VERTEX
8
0
10
0.248906
20
-0.421875
0
VERTEX
8
0
10
0.251719
20
-0.423281
0
VERTEX
8
0
10
0.254531
20
-0.420469
0
VERTEX
8
0
10
0.257344
20
-0.392344
0
VERTEX
8
0
10
0.258750
20
-0.413437
0
VERTEX
8
0
10
0.254531
20
-0.457031
0
VERTEX
8
0
10
0.234844
20
-0.527344
0
VERTEX
8
0
10
0.219375
20
-0.561094
0
VERTEX
8
0
10
0.203906
20
-0.582187
0
VERTEX
8
0
10
0.151875
20
-0.638437
0
VERTEX
8
0
10
0.144844
20
-0.638437
0
VERTEX
8
0
10
0.126562
20
-0.651094
0
VERTEX
8
0
10
0.067500
20
-0.677812
0
VERTEX
8
0
10
-0.046406
20
-0.715781
0
VERTEX
8
0
10
-0.090000
20
-0.722812
0
VERTEX
8
0
10
-0.164531
20
-0.728437
0
VERTEX
8
0
10
-0.181406
20
-0.734062
0
VERTEX
8
0
10
-0.212344
20
-0.734062
0
VERTEX
8
0
10
-0.261562
20
-0.728437
0
VERTEX
8
0
10
-0.296719
20
-0.714375
0
VERTEX
8
0
10
-0.324844
20
-0.707344
0
VERTEX
8
0
10
-0.350156
20
-0.694688
0
VERTEX
8
0
10
-0.368437
20
-0.690469
0
VERTEX
8
0
10
-0.452813
20
-0.645469
0
VERTEX
8
0
10
-0.471094
20
-0.628594
0
VERTEX
8
0
10
-0.506250
20
-0.622969
0
VERTEX
8
0
10
-0.517500
20
-0.615938
0
VERTEX
8
0
10
-0.528750
20
-0.603281
0
VERTEX
8
0
10
-0.544219
20
-0.597656
0
VERTEX
8
0
10
-0.575156
20
-0.558281
0
VERTEX
8
0
10
-0.577969
20
-0.561094
0
VERTEX
8
0
10
-0.576562
20
-0.569531
0
VERTEX
8
0
10
-0.580781
20
-0.565312
0
VERTEX
8
0
10
-0.585000
20
-0.556875
0
VERTEX
8
0
10
-0.575156
20
-0.555469
0
VERTEX
8
0
10
-0.573750
20
-0.552656
0
VERTEX
8
0
10
-0.593437
20
-0.531562
0
VERTEX
8
0
10
-0.606094
20
-0.523125
0
VERTEX
8
0
10
-0.603281
20
-0.517500
0
VERTEX
8
0
10
-0.624375
20
-0.490781
0
VERTEX
8
0
10
-0.620156
20
-0.486563
0
VERTEX
8
0
10
-0.631406
20
-0.469687
0
VERTEX
8
0
10
-0.652500
20
-0.447187
0
VERTEX
8
0
10
-0.666562
20
-0.438750
0
VERTEX
8
0
10
-0.662344
20
-0.433125
0
VERTEX
8
0
10
-0.698906
20
-0.400781
0
VERTEX
8
0
10
-0.684844
20
-0.406406
0
VERTEX
8
0
10
-0.679219
20
-0.403594
0
VERTEX
8
0
10
-0.689063
20
-0.388125
0
VERTEX
8
0
10
-0.718594
20
-0.358594
0
VERTEX
8
0
10
-0.704531
20
-0.365625
0
VERTEX
8
0
10
-0.698906
20
-0.364219
0
VERTEX
8
0
10
-0.698906
20
-0.358594
0
VERTEX
8
0
10
-0.717187
20
-0.331875
0
VERTEX
8
0
10
-0.732656
20
-0.317812
0
VERTEX
8
0
10
-0.722812
20
-0.319219
0
VERTEX
8
0
10
-0.720000
20
-0.316406
0
VERTEX
8
0
10
-0.743906
20
-0.286875
0
VERTEX
8
0
10
-0.731250
20
-0.292500
0
VERTEX
8
0
10
-0.728437
20
-0.289687
0
VERTEX
8
0
10
-0.731250
20
-0.284062
0
VERTEX
8
0
10
-0.741094
20
-0.274219
0
VERTEX
8
0
10
-0.749531
20
-0.271406
0
VERTEX
8
0
10
-0.741094
20
-0.271406
0
VERTEX
8
0
10
-0.701719
20
-0.285469
0
VERTEX
8
0
10
-0.675000
20
-0.281250
0
VERTEX
8
0
10
-0.696094
20
-0.305156
0
VERTEX
8
0
10
-0.690469
20
-0.309375
0
VERTEX
8
0
10
-0.630000
20
-0.291094
0
VERTEX
8
0
10
-0.624375
20
-0.285469
0
VERTEX
8
0
10
-0.620156
20
-0.271406
0
VERTEX
8
0
10
-0.594844
20
-0.255937
0
VERTEX
8
0
10
-0.604687
20
-0.295312
0
VERTEX
8
0
10
-0.599062
20
-0.299531
0
VERTEX
8
0
10
-0.555469
20
-0.255937
0
VERTEX
8
0
10
-0.545625
20
-0.230625
0
VERTEX
8
0
10
-0.542813
20
-0.199687
0
VERTEX
8
0
10
-0.534375
20
-0.215156
0
VERTEX
8
0
10
-0.524531
20
-0.246094
0
VERTEX
8
0
10
-0.520312
20
-0.250312
0
VERTEX
8
0
10
-0.517500
20
-0.248906
0
VERTEX
8
0
10
-0.509062
20
-0.233437
0
VERTEX
8
0
10
-0.504844
20
-0.213750
0
VERTEX
8
0
10
-0.507656
20
-0.108281
0
VERTEX
8
0
10
-0.510469
20
-0.097031
0
VERTEX
8
0
10
-0.530156
20
-0.057656
0
VERTEX
8
0
10
-0.558281
20
-0.035156
0
VERTEX
8
0
10
-0.541406
20
-0.040781
0
VERTEX
8
0
10
-0.537187
20
-0.039375
0
VERTEX
8
0
10
-0.537187
20
-0.035156
0
VERTEX
8
0
10
-0.548438
20
-0.015469
0
VERTEX
8
0
10
-0.559688
20
-0.002812
0
VERTEX
8
0
10
-0.583594
20
0.011250
0
VERTEX
8
0
10
-0.637031
20
0.014062
0
VERTEX
8
0
10
-0.597656
20
0.019688
0
VERTEX
8
0
10
-0.594844
20
0.022500
0
VERTEX
8
0
10
-0.597656
20
0.025312
0
VERTEX
8
0
10
-0.620156
20
0.033750
0
VERTEX
8
0
10
-0.656719
20
0.033750
0
VERTEX
8
0
10
-0.682031
20
0.029531
0
VERTEX
8
0
10
-0.704531
20
0.018281
0
VERTEX
8
0
10
-0.683437
20
0.043594
0
VERTEX
8
0
10
-0.686250
20
0.046406
0
VERTEX
8
0
10
-0.696094
20
0.046406
0
VERTEX
8
0
10
-0.715781
20
0.042187
0
VERTEX
8
0
10
-0.741094
20
0.026719
0
VERTEX
8
0
10
-0.760781
20
0.008438
0
VERTEX
8
0
10
-0.772031
20
-0.008438
0
VERTEX
8
0
10
-0.779062
20
-0.028125
0
VERTEX
8
0
10
-0.786094
20
-0.036562
0
VERTEX
8
0
10
-0.793125
20
-0.053437
0
VERTEX
8
0
10
-0.794531
20
-0.070312
0
VERTEX
8
0
10
-0.790312
20
-0.090000
0
VERTEX
8
0
10
-0.780469
20
-0.120937
0
VERTEX
8
0
10
-0.766406
20
-0.150469
0
VERTEX
8
0
10
-0.759375
20
-0.157500
0
VERTEX
8
0
10
-0.756563
20
-0.156094
0
VERTEX
8
0
10
-0.760781
20
-0.118125
0
VERTEX
8
0
10
-0.750937
20
-0.129375
0
VERTEX
8
0
10
-0.746719
20
-0.125156
0
VERTEX
8
0
10
-0.748125
20
-0.087188
0
VERTEX
8
0
10
-0.735469
20
-0.075937
0
VERTEX
8
0
10
-0.728437
20
-0.059062
0
VERTEX
8
0
10
-0.729844
20
-0.068906
0
VERTEX
8
0
10
-0.724219
20
-0.071719
0
VERTEX
8
0
10
-0.720000
20
-0.067500
0
VERTEX
8
0
10
-0.712969
20
-0.054844
0
VERTEX
8
0
10
-0.708750
20
-0.035156
0
VERTEX
8
0
10
-0.700313
20
-0.045000
0
VERTEX
8
0
10
-0.689063
20
-0.047813
0
VERTEX
8
0
10
-0.675000
20
-0.033750
0
VERTEX
8
0
10
-0.673594
20
-0.040781
0
VERTEX
8
0
10
-0.666562
20
-0.046406
0
VERTEX
8
0
10
-0.660937
20
-0.046406
0
VERTEX
8
0
10
-0.648281
20
-0.035156
0
VERTEX
8
0
10
-0.642656
20
-0.033750
0
VERTEX
8
0
10
-0.651094
20
-0.039375
0
VERTEX
8
0
10
-0.651094
20
-0.043594
0
VERTEX
8
0
10
-0.644062
20
-0.052031
0
VERTEX
8
0
10
-0.624375
20
-0.047813
0
VERTEX
8
0
10
-0.624375
20
-0.053437
0
VERTEX
8
0
10
-0.618750
20
-0.059062
0
VERTEX
8
0
10
-0.597656
20
-0.064687
0
VERTEX
8
0
10
-0.606094
20
-0.063281
0
VERTEX
8
0
10
-0.613125
20
-0.067500
0
VERTEX
8
0
10
-0.610312
20
-0.075937
0
VERTEX
8
0
10
-0.600469
20
-0.085781
0
VERTEX
8
0
10
-0.579375
20
-0.090000
0
VERTEX
8
0
10
-0.572344
20
-0.095625
0
VERTEX
8
0
10
-0.577969
20
-0.092812
0
VERTEX
8
0
10
-0.589219
20
-0.092812
0
VERTEX
8
0
10
-0.592031
20
-0.095625
0
VERTEX
8
0
10
-0.572344
20
-0.120937
0
VERTEX
8
0
10
-0.586406
20
-0.120937
0
VERTEX
8
0
10
-0.575156
20
-0.150469
0
VERTEX
8
0
10
-0.589219
20
-0.150469
0
VERTEX
8
0
10
-0.589219
20
-0.174375
0
VERTEX
8
0
10
-0.599062
20
-0.182812
0
VERTEX
8
0
10
-0.599062
20
-0.195469
0
VERTEX
8
0
10
-0.615938
20
-0.194062
0
VERTEX
8
0
10
-0.622969
20
-0.212344
0
VERTEX
8
0
10
-0.628594
20
-0.206719
0
VERTEX
8
0
10
-0.639844
20
-0.206719
0
VERTEX
8
0
10
-0.651094
20
-0.223594
0
VERTEX
8
0
10
-0.655312
20
-0.209531
0
VERTEX
8
0
10
-0.669375
20
-0.210938
0
VERTEX
8
0
10
-0.686250
20
-0.219375
0
VERTEX
8
0
10
-0.697500
20
-0.210938
0
VERTEX
8
0
10
-0.722812
20
-0.208125
0
VERTEX
8
0
10
-0.717187
20
-0.199687
0
VERTEX
8
0
10
-0.727031
20
-0.192656
0
VERTEX
8
0
10
-0.743906
20
-0.191250
0
VERTEX
8
0
10
-0.735469
20
-0.188437
0
VERTEX
8
0
10
-0.734062
20
-0.184219
0
VERTEX
8
0
10
-0.736875
20
-0.178594
0
VERTEX
8
0
10
-0.745312
20
-0.170156
0
VERTEX
8
0
10
-0.760781
20
-0.167344
0
VERTEX
8
0
10
-0.765000
20
-0.153281
0
VERTEX
8
0
10
-0.780469
20
-0.142031
0
VERTEX
8
0
10
-0.776250
20
-0.140625
0
VERTEX
8
0
10
-0.777656
20
-0.132187
0
VERTEX
8
0
10
-0.794531
20
-0.115312
0
VERTEX
8
0
10
-0.790312
20
-0.109687
0
VERTEX
8
0
10
-0.791719
20
-0.094219
0
VERTEX
8
0
10
-0.805781
20
-0.075937
0
VERTEX
8
0
10
-0.797344
20
-0.075937
0
VERTEX
8
0
10
-0.794531
20
-0.066094
0
VERTEX
8
0
10
-0.802969
20
-0.049219
0
VERTEX
8
0
10
-0.797344
20
-0.047813
0
VERTEX
8
0
10
-0.800156
20
-0.029531
0
VERTEX
8
0
10
-0.810000
20
-0.009844
0
VERTEX
8
0
10
-0.802969
20
-0.014062
0
VERTEX
8
0
10
-0.794531
20
0.002812
0
VERTEX
8
0
10
-0.808594
20
0.032344
0
VERTEX
8
0
10
-0.800156
20
0.029531
0
VERTEX
8
0
10
-0.794531
20
0.032344
0
VERTEX
8
0
10
-0.794531
20
0.063281
0
VERTEX
8
0
10
-0.788906
20
0.090000
0
VERTEX
8
0
10
-0.790312
20
0.097031
0
VERTEX
8
0
10
-0.802969
20
0.092812
0
VERTEX
8
0
10
-0.821250
20
0.080156
0
VERTEX
8
0
10
-0.850781
20
0.078750
0
VERTEX
8
0
10
-0.853594
20
0.075937
0
VERTEX
8
0
10
-0.862031
20
0.023906
0
VERTEX
8
0
10
-0.856406
20
0.001406
0
VERTEX
8
0
10
-0.849375
20
-0.064687
0
VERTEX
8
0
10
-0.843750
20
-0.090000
0
VERTEX
8
0
10
-0.838125
20
-0.101250
0
VERTEX
8
0
10
-0.862031
20
-0.084375
0
VERTEX
8
0
10
-0.869062
20
-0.082969
0
VERTEX
8
0
10
-0.869062
20
0.898594
0
SEQEND
0
POLYLINE
8
0
66
1
0
VERTEX
8
0
10
-0.869062
20
-0.102656
0
VERTEX
8
0
10
-0.867656
20
-0.109687
0
VERTEX
8
0
10
-0.847969
20
-0.144844
0
VERTEX
8
0
10
-0.836719
20
-0.153281
0
VERTEX
8
0
10
-0.822656
20
-0.154688
0
VERTEX
8
0
10
-0.810000
20
-0.172969
0
VERTEX
8
0
10
-0.836719
20
-0.174375
0
VERTEX
8
0
10
-0.835313
20
-0.216562
0
VERTEX
8
0
10
-0.832500
20
-0.233437
0
VERTEX
8
0
10
-0.824062
20
-0.254531
0
VERTEX
8
0
10
-0.814219
20
-0.272813
0
VERTEX
8
0
10
-0.798750
20
-0.286875
0
VERTEX
8
0
10
-0.794531
20
-0.305156
0
VERTEX
8
0
10
-0.824062
20
-0.281250
0
VERTEX
8
0
10
-0.826875
20
-0.281250
0
VERTEX
8
0
10
-0.828281
20
-0.285469
0
VERTEX
8
0
10
-0.812812
20
-0.307969
0
VERTEX
8
0
10
-0.801562
20
-0.333281
0
VERTEX
8
0
10
-0.790312
20
-0.350156
0
VERTEX
8
0
10
-0.767813
20
-0.374062
0
VERTEX
8
0
10
-0.752344
20
-0.396562
0
VERTEX
8
0
10
-0.766406
20
-0.389531
0
VERTEX
8
0
10
-0.790312
20
-0.368437
0
VERTEX
8
0
10
-0.793125
20
-0.371250
0
VERTEX
8
0
10
-0.783281
20
-0.389531
0
VERTEX
8
0
10
-0.772031
20
-0.403594
0
VERTEX
8
0
10
-0.765000
20
-0.419063
0
VERTEX
8
0
10
-0.735469
20
-0.445781
0
VERTEX
8
0
10
-0.720000
20
-0.468281
0
VERTEX
8
0
10
-0.736875
20
-0.464062
0
VERTEX
8
0
10
-0.745312
20
-0.458437
0
VERTEX
8
0
10
-0.749531
20
-0.458437
0
VERTEX
8
0
10
-0.750937
20
-0.462656
0
VERTEX
8
0
10
-0.712969
20
-0.499219
0
VERTEX
8
0
10
-0.673594
20
-0.531562
0
VERTEX
8
0
10
-0.659531
20
-0.554063
0
VERTEX
8
0
10
-0.683437
20
-0.544219
0
VERTEX
8
0
10
-0.687656
20
-0.545625
0
VERTEX
8
0
10
-0.686250
20
-0.551250
0
VERTEX
8
0
10
-0.655312
20
-0.582187
0
VERTEX
8
0
10
-0.634219
20
-0.599062
0
VERTEX
8
0
10
-0.608906
20
-0.614531
0
VERTEX
8
0
10
-0.590625
20
-0.634219
0
VERTEX
8
0
10
-0.587812
20
-0.641250
0
VERTEX
8
0
10
-0.611719
20
-0.641250
0
VERTEX
8
0
10
-0.614531
20
-0.644062
0
VERTEX
8
0
10
-0.613125
20
-0.646875
0
VERTEX
8
0
10
-0.577969
20
-0.669375
0
VERTEX
8
0
10
-0.552656
20
-0.670781
0
VERTEX
8
0
10
-0.535781
20
-0.684844
0
VERTEX
8
0
10
-0.514687
20
-0.686250
0
VERTEX
8
0
10
-0.495000
20
-0.697500
0
VERTEX
8
0
10
-0.478125
20
-0.701719
0
VERTEX
8
0
10
-0.476719
20
-0.704531
0
VERTEX
8
0
10
-0.511875
20
-0.708750
0
VERTEX
8
0
10
-0.514687
20
-0.711562
0
VERTEX
8
0
10
-0.514687
20
-0.717187
0
VERTEX
8
0
10
-0.504844
20
-0.725625
0
VERTEX
8
0
10
-0.486563
20
-0.732656
0
VERTEX
8
0
10
-0.469687
20
-0.732656
0
VERTEX
8
0
10
-0.448594
20
-0.741094
0
VERTEX
8
0
10
-0.433125
20
-0.742500
0
VERTEX
8
0
10
-0.416250
20
-0.750937
0
VERTEX
8
0
10
-0.399375
20
-0.752344
0
VERTEX
8
0
10
-0.368437
20
-0.765000
0
VERTEX
8
0
10
-0.345938
20
-0.767813
0
VERTEX
8
0
10
-0.344531
20
-0.769219
0
VERTEX
8
0
10
-0.350156
20
-0.772031
0
VERTEX
8
0
10
-0.375469
20
-0.777656
0
VERTEX
8
0
10
-0.395156
20
-0.791719
0
VERTEX
8
0
10
-0.399375
20
-0.798750
0
VERTEX
8
0
10
-0.389531
20
-0.808594
0
VERTEX
8
0
10
-0.344531
20
-0.808594
0
VERTEX
8
0
10
-0.309375
20
-0.817031
0
VERTEX
8
0
10
-0.279844
20
-0.817031
0
VERTEX
8
0
10
-0.261562
20
-0.810000
0
VERTEX
8
0
10
-0.236250
20
-0.808594
0
VERTEX
8
0
10
-0.217969
20
-0.800156
0
VERTEX
8
0
10
-0.229219
20
-0.810000
0
VERTEX
8
0
10
-0.234844
20
-0.811406
0
VERTEX
8
0
10
-0.254531
20
-0.825469
0
VERTEX
8
0
10
-0.257344
20
-0.833906
0
VERTEX
8
0
10
-0.255937
20
-0.840938
0
VERTEX
8
0
10
-0.251719
20
-0.845156
0
VERTEX
8
0
10
-0.147656
20
-0.838125
0
VERTEX
8
0
10
-0.120937
20
-0.817031
0
VERTEX
8
0
10
-0.108281
20
-0.800156
0
VERTEX
8
0
10
-0.098437
20
-0.798750
0
VERTEX
8
0
10
-0.095625
20
-0.800156
0
VERTEX
8
0
10
-0.098437
20
-0.802969
0
VERTEX
8
0
10
-0.136406
20
-0.832500
0
VERTEX
8
0
10
-0.137813
20
-0.860625
0
VERTEX
8
0
10
-0.132187
20
-0.866250
0
VERTEX
8
0
10
-0.112500
20
-0.859219
0
VERTEX
8
0
10
-0.105469
20
-0.852187
0
VERTEX
8
0
10
-0.088594
20
-0.842344
0
VERTEX
8
0
10
0.002812
20
-0.812812
0
VERTEX
8
0
10
0.016875
20
-0.790312
0
VERTEX
8
0
10
0.023906
20
-0.784687
0
VERTEX
8
0
10
0.007031
20
-0.831094
0
VERTEX
8
0
10
0.008438
20
-0.835313
0
VERTEX
8
0
10
0.012656
20
-0.836719
0
VERTEX
8
0
10
0.035156
20
-0.818437
0
VERTEX
8
0
10
0.073125
20
-0.795937
0
VERTEX
8
0
10
0.082969
20
-0.786094
0
VERTEX
8
0
10
0.105469
20
-0.787500
0
VERTEX
8
0
10
0.126562
20
-0.776250
0
VERTEX
8
0
10
0.135000
20
-0.765000
0
VERTEX
8
0
10
0.136406
20
-0.750937
0
VERTEX
8
0
10
0.142031
20
-0.735469
0
VERTEX
8
0
10
0.142031
20
-0.770625
0
VERTEX
8
0
10
0.177187
20
-0.763594
0
VERTEX
8
0
10
0.215156
20
-0.720000
0
VERTEX
8
0
10
0.222187
20
-0.703125
0
VERTEX
8
0
10
0.225000
20
-0.687656
0
VERTEX
8
0
10
0.236250
20
-0.676406
0
VERTEX
8
0
10
0.236250
20
-0.690469
0
VERTEX
8
0
10
0.230625
20
-0.714375
0
VERTEX
8
0
10
0.237656
20
-0.718594
0
VERTEX
8
0
10
0.243281
20
-0.712969
0
VERTEX
8
0
10
0.253125
20
-0.708750
0
VERTEX
8
0
10
0.268594
20
-0.694688
0
VERTEX
8
0
10
0.296719
20
-0.660937
0
VERTEX
8
0
10
0.305156
20
-0.608906
0
VERTEX
8
0
10
0.306563
20
-0.622969
0
VERTEX
8
0
10
0.315000
20
-0.652500
0
VERTEX
8
0
10
0.322031
20
-0.658125
0
VERTEX
8
0
10
0.326250
20
-0.652500
0
VERTEX
8
0
10
0.327656
20
-0.642656
0
VERTEX
8
0
10
0.334687
20
-0.627188
0
VERTEX
8
0
10
0.355781
20
-0.597656
0
VERTEX
8
0
10
0.376875
20
-0.559688
0
VERTEX
8
0
10
0.368437
20
-0.517500
0
VERTEX
8
0
10
0.382500
20
-0.532969
0
VERTEX
8
0
10
0.382500
20
-0.551250
0
VERTEX
8
0
10
0.386719
20
-0.570937
0
VERTEX
8
0
10
0.389531
20
-0.575156
0
VERTEX
8
0
10
0.395156
20
-0.573750
0
VERTEX
8
0
10
0.402187
20
-0.517500
0
VERTEX
8
0
10
0.416250
20
-0.493594
0
VERTEX
8
0
10
0.423281
20
-0.475312
0
VERTEX
8
0
10
0.419063
20
-0.434531
0
VERTEX
8
0
10
0.410625
20
-0.414844
0
VERTEX
8
0
10
0.413437
20
-0.414844
0
VERTEX
8
0
10
0.420469
20
-0.424687
0
VERTEX
8
0
10
0.430312
20
-0.462656
0
VERTEX
8
0
10
0.441562
20
-0.472500
0
VERTEX
8
0
10
0.445781
20
-0.469687
0
VERTEX
8
0
10
0.462656
20
-0.433125
0
VERTEX
8
0
10
0.457031
20
-0.369844
0
VERTEX
8
0
10
0.454219
20
-0.354375
0
VERTEX
8
0
10
0.445781
20
-0.331875
0
VERTEX
8
0
10
0.455625
20
-0.340312
0
VERTEX
8
0
10
0.457031
20
-0.350156
0
VERTEX
8
0
10
0.462656
20
-0.358594
0
VERTEX
8
0
10
0.469687
20
-0.361406
0
VERTEX
8
0
10
0.475312
20
-0.352969
0
VERTEX
8
0
10
0.476719
20
-0.326250
0
VERTEX
8
0
10
0.473906
20
-0.307969
0
VERTEX
8
0
10
0.464062
20
-0.275625
0
VERTEX
8
0
10
0.458437
20
-0.265781
0
VERTEX
8
0
10
0.437344
20
-0.243281
0
VERTEX
8
0
10
0.437344
20
-0.205312
0
VERTEX
8
0
10
0.435937
20
-0.198281
0
VERTEX
8
0
10
0.427500
20
-0.184219
0
VERTEX
8
0
10
0.479531
20
-0.177187
0
VERTEX
8
0
10
0.506250
20
-0.196875
0
VERTEX
8
0
10
0.516094
20
-0.215156
0
VERTEX
8
0
10
0.520312
20
-0.234844
0
VERTEX
8
0
10
0.521719
20
-0.296719
0
VERTEX
8
0
10
0.511875
20
-0.322031
0
VERTEX
8
0
10
0.480937
20
-0.357187
0
VERTEX
8
0
10
0.476719
20
-0.368437
0
VERTEX
8
0
10
0.480937
20
-0.372656
0
VERTEX
8
0
10
0.500625
20
-0.372656
0
VERTEX
8
0
10
0.514687
20
-0.369844
0
VERTEX
8
0
10
0.516094
20
-0.367031
0
VERTEX
8
0
10
0.523125
20
-0.367031
0
VERTEX
8
0
10
0.540000
20
-0.386719
0
VERTEX
8
0
10
0.548438
20
-0.405000
0
VERTEX
8
0
10
0.545625
20
-0.435937
0
VERTEX
8
0
10
0.537187
20
-0.466875
0
VERTEX
8
0
10
0.532969
20
-0.472500
0
VERTEX
8
0
10
0.532969
20
-0.480937
0
VERTEX
8
0
10
0.468281
20
-0.537187
0
VERTEX
8
0
10
0.424687
20
-0.568125
0
VERTEX
8
0
10
0.424687
20
-0.573750
0
VERTEX
8
0
10
0.448594
20
-0.600469
0
VERTEX
8
0
10
0.450000
20
-0.630000
0
VERTEX
8
0
10
0.447187
20
-0.642656
0
VERTEX
8
0
10
0.413437
20
-0.670781
0
VERTEX
8
0
10
0.389531
20
-0.683437
0
VERTEX
8
0
10
0.291094
20
-0.714375
0
VERTEX
8
0
10
0.275625
20
-0.711562
0
VERTEX
8
0
10
0.257344
20
-0.722812
0
VERTEX
8
0
10
0.251719
20
-0.728437
0
VERTEX
8
0
10
0.251719
20
-0.766406
0
VERTEX
8
0
10
0.248906
20
-0.784687
0
VERTEX
8
0
10
0.223594
20
-0.812812
0
VERTEX
8
0
10
0.212344
20
-0.818437
0
VERTEX
8
0
10
0.139219
20
-0.838125
0
VERTEX
8
0
10
-0.019688
20
-0.870469
0
VERTEX
8
0
10
-0.042187
20
-0.877500
0
VERTEX
8
0
10
-0.136406
20
-0.887344
0
VERTEX
8
0
10
-0.139219
20
-0.892969
0
VERTEX
8
0
10
-0.135000
20
-0.897187
0
VERTEX
8
0
10
-0.102656
20
-0.900000
0
VERTEX
8
0
10
-0.869062
20
-0.900000
0
VERTEX
8
0
10
-0.869062
20
-0.102656
0
SEQEND
0
POLYLINE
8
0
66
1
0
VERTEX
8
0
10
-0.838125
20
0.185625
0
VERTEX
8
0
10
-0.836719
20
0.187031
0
VERTEX
8
0
10
-0.836719
20
0.189844
0
VERTEX
8
0
10
-0.835313
20
0.189844
0
VERTEX
8
0
10
-0.833906
20
0.188437
0
VERTEX
8
0
10
-0.833906
20
0.185625
0
VERTEX
8
0
10
-0.832500
20
0.184219
0
VERTEX
8
0
10
-0.829688
20
0.184219
0
VERTEX
8
0
10
-0.828281
20
0.185625
0
VERTEX
8
0
10
-0.826875
20
0.185625
0
VERTEX
8
0
10
-0.824062
20
0.188437
0
VERTEX
8
0
10
-0.824062
20
0.189844
0
VERTEX
8
0
10
-0.821250
20
0.192656
0
VERTEX
8
0
10
-0.821250
20
0.194062
0
VERTEX
8
0
10
-0.819844
20
0.195469
0
VERTEX
8
0
10
-0.819844
20
0.198281
0
VERTEX
8
0
10
-0.818437
20
0.199687
0
VERTEX
8
0
10
-0.818437
20
0.201094
0
VERTEX
8
0
10
-0.818437
20
0.194062
0
VERTEX
8
0
10
-0.819844
20
0.192656
0
VERTEX
8
0
10
-0.819844
20
0.187031
0
VERTEX
8
0
10
-0.821250
20
0.185625
0
VERTEX
8
0
10
-0.821250
20
0.182812
0
VERTEX
8
0
10
-0.822656
20
0.181406
0
VERTEX
8
0
10
-0.822656
20
0.177187
0
VERTEX
8
0
10
-0.824062
20
0.175781
0
VERTEX
8
0
10
-0.824062
20
0.172969
0
VERTEX
8
0
10
-0.825469
20
0.171563
0
VERTEX
8
0
10
-0.825469
20
0.170156
0
VERTEX
8
0
10
-0.826875
20
0.168750
0
VERTEX
8
0
10
-0.826875
20
0.167344
0
VERTEX
8
0
10
-0.829688
20
0.164531
0
VERTEX
8
0
10
-0.836719
20
0.164531
0
VERTEX
8
0
10
-0.836719
20
0.165937
0
VERTEX
8
0
10
-0.838125
20
0.167344
0
VERTEX
8
0
10
-0.838125
20
0.185625
0
SEQEND
0
POLYLINE
8
0
66
1
0
VERTEX
8
0
10
-0.804375
20
0.322031
0
VERTEX
8
0
10
-0.802969
20
0.323437
0
VERTEX
8
0
10
-0.802969
20
0.326250
0
VERTEX
8
0
10
-0.801562
20
0.327656
0
VERTEX
8
0
10
-0.801562
20
0.329062
0
VERTEX
8
0
10
-0.800156
20
0.330469
0
VERTEX
8
0
10
-0.800156
20
0.331875
0
VERTEX
8
0
10
-0.798750
20
0.333281
0
VERTEX
8
0
10
-0.798750
20
0.334687
0
VERTEX
8
0
10
-0.795937
20
0.337500
0
VERTEX
8
0
10
-0.795937
20
0.338906
0
VERTEX
8
0
10
-0.793125
20
0.341719
0
VERTEX
8
0
10
-0.791719
20
0.341719
0
VERTEX
8
0
10
-0.779062
20
0.354375
0
VERTEX
8
0
10
-0.779062
20
0.355781
0
VERTEX
8
0
10
-0.766406
20
0.368437
0
VERTEX
8
0
10
-0.765000
20
0.368437
0
VERTEX
8
0
10
-0.763594
20
0.369844
0
VERTEX
8
0
10
-0.755156
20
0.369844
0
VERTEX
8
0
10
-0.755156
20
0.368437
0
VERTEX
8
0
10
-0.762188
20
0.361406
0
VERTEX
8
0
10
-0.762188
20
0.358594
0
VERTEX
8
0
10
-0.759375
20
0.355781
0
VERTEX
8
0
10
-0.760781
20
0.354375
0
VERTEX
8
0
10
-0.765000
20
0.354375
0
VERTEX
8
0
10
-0.766406
20
0.352969
0
VERTEX
8
0
10
-0.767813
20
0.352969
0
VERTEX
8
0
10
-0.773438
20
0.347344
0
VERTEX
8
0
10
-0.773438
20
0.345938
0
VERTEX
8
0
10
-0.776250
20
0.343125
0
VERTEX
8
0
10
-0.776250
20
0.341719
0
VERTEX
8
0
10
-0.779062
20
0.338906
0
VERTEX
8
0
10
-0.779062
20
0.337500
0
VERTEX
8
0
10
-0.784687
20
0.331875
0
VERTEX
8
0
10
-0.784687
20
0.329062
0
VERTEX
8
0
10
-0.786094
20
0.327656
0
VERTEX
8
0
10
-0.786094
20
0.320625
0
VERTEX
8
0
10
-0.787500
20
0.319219
0
VERTEX
8
0
10
-0.787500
20
0.296719
0
VERTEX
8
0
10
-0.788906
20
0.295312
0
VERTEX
8
0
10
-0.788906
20
0.289687
0
VERTEX
8
0
10
-0.790312
20
0.289687
0
VERTEX
8
0
10
-0.791719
20
0.291094
0
VERTEX
8
0
10
-0.791719
20
0.292500
0
VERTEX
8
0
10
-0.794531
20
0.295312
0
VERTEX
8
0
10
-0.794531
20
0.296719
0
VERTEX
8
0
10
-0.795937
20
0.298125
0
VERTEX
8
0
10
-0.795937
20
0.300937
0
VERTEX
8
0
10
-0.797344
20
0.302344
0
VERTEX
8
0
10
-0.797344
20
0.303750
0
VERTEX
8
0
10
-0.798750
20
0.305156
0
VERTEX
8
0
10
-0.798750
20
0.307969
0
VERTEX
8
0
10
-0.800156
20
0.309375
0
VERTEX
8
0
10
-0.800156
20
0.312188
0
VERTEX
8
0
10
-0.801562
20
0.313594
0
VERTEX
8
0
10
-0.801562
20
0.315000
0
VERTEX
8
0
10
-0.802969
20
0.316406
0
VERTEX
8
0
10
-0.802969
20
0.319219
0
VERTEX
8
0
10
-0.804375
20
0.320625
0
VERTEX
8
0
10
-0.804375
20
0.322031
0
SEQEND
0
POLYLINE
8
0
66
1
0
VERTEX
8
0
10
-0.604687
20
0.600469
0
VERTEX
8
0
10
-0.603281
20
0.601875
0
VERTEX
8
0
10
-0.603281
20
0.603281
0
VERTEX
8
0
10
-0.601875
20
0.604687
0
VERTEX
8
0
10
-0.601875
20
0.606094
0
VERTEX
8
0
10
-0.597656
20
0.610312
0
VERTEX
8
0
10
-0.596250
20
0.610312
0
VERTEX
8
0
10
-0.590625
20
0.615938
0
VERTEX
8
0
10
-0.589219
20
0.615938
0
VERTEX
8
0
10
-0.587812
20
0.617344
0
VERTEX
8
0
10
-0.582187
20
0.617344
0
VERTEX
8
0
10
-0.580781
20
0.618750
0
VERTEX
8
0
10
-0.579375
20
0.618750
0
VERTEX
8
0
10
-0.577969
20
0.620156
0
VERTEX
8
0
10
-0.576562
20
0.620156
0
VERTEX
8
0
10
-0.575156
20
0.621563
0
VERTEX
8
0
10
-0.573750
20
0.621563
0
VERTEX
8
0
10
-0.572344
20
0.622969
0
VERTEX
8
0
10
-0.570937
20
0.622969
0
VERTEX
8
0
10
-0.569531
20
0.624375
0
VERTEX
8
0
10
-0.568125
20
0.624375
0
VERTEX
8
0
10
-0.566719
20
0.625781
0
VERTEX
8
0
10
-0.566719
20
0.624375
0
VERTEX
8
0
10
-0.572344
20
0.618750
0
VERTEX
8
0
10
-0.572344
20
0.617344
0
VERTEX
8
0
10
-0.577969
20
0.611719
0
VERTEX
8
0
10
-0.577969
20
0.610312
0
VERTEX
8
0
10
-0.583594
20
0.604687
0
VERTEX
8
0
10
-0.583594
20
0.603281
0
VERTEX
8
0
10
-0.587812
20
0.599062
0
VERTEX
8
0
10
-0.589219
20
0.599062
0
VERTEX
8
0
10
-0.593437
20
0.594844
0
VERTEX
8
0
10
-0.594844
20
0.594844
0
VERTEX
8
0
10
-0.596250
20
0.593437
0
VERTEX
8
0
10
-0.597656
20
0.593437
0
VERTEX
8
0
10
-0.599062
20
0.592031
0
VERTEX
8
0
10
-0.600469
20
0.592031
0
VERTEX
8
0
10
-0.603281
20
0.589219
0
VERTEX
8
0
10
-0.604687
20
0.589219
0
VERTEX
8
0
10
-0.604687
20
0.600469
0
SEQEND
0
POLYLINE
8
0
66
1
0
VERTEX
8
0
10
-0.555469
20
0.549844
0
VERTEX
8
0
10
-0.554063
20
0.551250
0
VERTEX
8
0
10
-0.552656
20
0.551250
0
VERTEX
8
0
10
-0.549844
20
0.554063
0
VERTEX
8
0
10
-0.548438
20
0.554063
0
VERTEX
8
0
10
-0.545625
20
0.556875
0
VERTEX
8
0
10
-0.544219
20
0.556875
0
VERTEX
8
0
10
-0.541406
20
0.559688
0
VERTEX
8
0
10
-0.540000
20
0.559688
0
VERTEX
8
0
10
-0.537187
20
0.562500
0
VERTEX
8
0
10
-0.535781
20
0.562500
0
VERTEX
8
0
10
-0.532969
20
0.565312
0
VERTEX
8
0
10
-0.531562
20
0.565312
0
VERTEX
8
0
10
-0.525937
20
0.570937
0
VERTEX
8
0
10
-0.524531
20
0.570937
0
VERTEX
8
0
10
-0.509062
20
0.586406
0
VERTEX
8
0
10
-0.509062
20
0.587812
0
VERTEX
8
0
10
-0.504844
20
0.592031
0
VERTEX
8
0
10
-0.503437
20
0.592031
0
VERTEX
8
0
10
-0.497812
20
0.597656
0
VERTEX
8
0
10
-0.496406
20
0.597656
0
VERTEX
8
0
10
-0.489375
20
0.604687
0
VERTEX
8
0
10
-0.487969
20
0.604687
0
VERTEX
8
0
10
-0.478125
20
0.614531
0
VERTEX
8
0
10
-0.476719
20
0.614531
0
VERTEX
8
0
10
-0.469687
20
0.621563
0
VERTEX
8
0
10
-0.468281
20
0.621563
0
VERTEX
8
0
10
-0.465469
20
0.624375
0
VERTEX
8
0
10
-0.464062
20
0.624375
0
VERTEX
8
0
10
-0.464062
20
0.622969
0
VERTEX
8
0
10
-0.465469
20
0.621563
0
VERTEX
8
0
10
-0.465469
20
0.615938
0
VERTEX
8
0
10
-0.466875
20
0.614531
0
VERTEX
8
0
10
-0.466875
20
0.613125
0
VERTEX
8
0
10
-0.468281
20
0.611719
0
VERTEX
8
0
10
-0.468281
20
0.608906
0
VERTEX
8
0
10
-0.469687
20
0.607500
0
VERTEX
8
0
10
-0.469687
20
0.606094
0
VERTEX
8
0
10
-0.472500
20
0.603281
0
VERTEX
8
0
10
-0.472500
20
0.601875
0
VERTEX
8
0
10
-0.473906
20
0.600469
0
VERTEX
8
0
10
-0.473906
20
0.599062
0
VERTEX
8
0
10
-0.475312
20
0.597656
0
VERTEX
8
0
10
-0.475312
20
0.596250
0
VERTEX
8
0
10
-0.478125
20
0.593437
0
VERTEX
8
0
10
-0.478125
20
0.592031
0
VERTEX
8
0
10
-0.480937
20
0.589219
0
VERTEX
8
0
10
-0.480937
20
0.587812
0
VERTEX
8
0
10
-0.483750
20
0.585000
0
VERTEX
8
0
10
-0.483750
20
0.583594
0
VERTEX
8
0
10
-0.486563
20
0.580781
0
VERTEX
8
0
10
-0.486563
20
0.579375
0
VERTEX
8
0
10
-0.489375
20
0.576562
0
VERTEX
8
0
10
-0.489375
20
0.575156
0
VERTEX
8
0
10
-0.490781
20
0.573750
0
VERTEX
8
0
10
-0.490781
20
0.572344
0
VERTEX
8
0
10
-0.493594
20
0.569531
0
VERTEX
8
0
10
-0.496406
20
0.569531
0
VERTEX
8
0
10
-0.497812
20
0.568125
0
VERTEX
8
0
10
-0.516094
20
0.568125
0
VERTEX
8
0
10
-0.518906
20
0.565312
0
VERTEX
8
0
10
-0.518906
20
0.563906
0
VERTEX
8
0
10
-0.516094
20
0.561094
0
VERTEX
8
0
10
-0.514687
20
0.561094
0
VERTEX
8
0
10
-0.513281
20
0.559688
0
VERTEX
8
0
10
-0.507656
20
0.559688
0
VERTEX
8
0
10
-0.506250
20
0.558281
0
VERTEX
8
0
10
-0.506250
20
0.555469
0
VERTEX
8
0
10
-0.507656
20
0.554063
0
VERTEX
8
0
10
-0.507656
20
0.552656
0
VERTEX
8
0
10
-0.513281
20
0.547031
0
VERTEX
8
0
10
-0.514687
20
0.547031
0
VERTEX
8
0
10
-0.516094
20
0.545625
0
VERTEX
8
0
10
-0.535781
20
0.545625
0
VERTEX
8
0
10
-0.537187
20
0.547031
0
VERTEX
8
0
10
-0.544219
20
0.547031
0
VERTEX
8
0
10
-0.545625
20
0.548438
0
VERTEX
8
0
10
-0.549844
20
0.548438
0
VERTEX
8
0
10
-0.551250
20
0.549844
0
VERTEX
8
0
10
-0.555469
20
0.549844
0
SEQEND
0
POLYLINE
8
0
66
1
0
VERTEX
8
0
10
-0.506250
20
0.691875
0
VERTEX
8
0
10
-0.504844
20
0.693281
0
VERTEX
8
0
10
-0.504844
20
0.698906
0
VERTEX
8
0
10
-0.503437
20
0.698906
0
VERTEX
8
0
10
-0.502031
20
0.700313
0
VERTEX
8
0
10
-0.500625
20
0.700313
0
VERTEX
8
0
10
-0.499219
20
0.701719
0
VERTEX
8
0
10
-0.496406
20
0.701719
0
VERTEX
8
0
10
-0.495000
20
0.703125
0
VERTEX
8
0
10
-0.490781
20
0.703125
0
VERTEX
8
0
10
-0.489375
20
0.704531
0
VERTEX
8
0
10
-0.486563
20
0.704531
0
VERTEX
8
0
10
-0.485156
20
0.705937
0
VERTEX
8
0
10
-0.482344
20
0.705937
0
VERTEX
8
0
10
-0.480937
20
0.707344
0
VERTEX
8
0
10
-0.476719
20
0.707344
0
VERTEX
8
0
10
-0.475312
20
0.708750
0
VERTEX
8
0
10
-0.471094
20
0.708750
0
VERTEX
8
0
10
-0.469687
20
0.710156
0
VERTEX
8
0
10
-0.465469
20
0.710156
0
VERTEX
8
0
10
-0.464062
20
0.711562
0
VERTEX
8
0
10
-0.455625
20
0.711562
0
VERTEX
8
0
10
-0.455625
20
0.710156
0
VERTEX
8
0
10
-0.457031
20
0.708750
0
VERTEX
8
0
10
-0.457031
20
0.707344
0
VERTEX
8
0
10
-0.465469
20
0.698906
0
VERTEX
8
0
10
-0.466875
20
0.698906
0
VERTEX
8
0
10
-0.468281
20
0.697500
0
VERTEX
8
0
10
-0.471094
20
0.697500
0
VERTEX
8
0
10
-0.472500
20
0.696094
0
VERTEX
8
0
10
-0.473906
20
0.696094
0
VERTEX
8
0
10
-0.475312
20
0.694688
0
VERTEX
8
0
10
-0.475312
20
0.693281
0
VERTEX
8
0
10
-0.476719
20
0.691875
0
VERTEX
8
0
10
-0.478125
20
0.691875
0
VERTEX
8
0
10
-0.480937
20
0.689063
0
VERTEX
8
0
10
-0.482344
20
0.689063
0
VERTEX
8
0
10
-0.483750
20
0.687656
0
VERTEX
8
0
10
-0.485156
20
0.687656
0
VERTEX
8
0
10
-0.486563
20
0.686250
0
VERTEX
8
0
10
-0.487969
20
0.686250
0
VERTEX
8
0
10
-0.489375
20
0.684844
0
VERTEX
8
0
10
-0.490781
20
0.684844
0
VERTEX
8
0
10
-0.492188
20
0.683437
0
VERTEX
8
0
10
-0.493594
20
0.683437
0
VERTEX
8
0
10
-0.495000
20
0.682031
0
VERTEX
8
0
10
-0.496406
20
0.682031
0
VERTEX
8
0
10
-0.497812
20
0.680625
0
VERTEX
8
0
10
-0.499219
20
0.680625
0
VERTEX
8
0
10
-0.500625
20
0.679219
0
VERTEX
8
0
10
-0.502031
20
0.679219
0
VERTEX
8
0
10
-0.503437
20
0.677812
0
VERTEX
8
0
10
-0.504844
20
0.679219
0
VERTEX
8
0
10
-0.504844
20
0.689063
0
VERTEX
8
0
10
-0.506250
20
0.690469
0
VERTEX
8
0
10
-0.506250
20
0.691875
0
SEQEND
0
POLYLINE
8
0
66
1
0
VERTEX
8
0
10
-0.185625
20
0.840938
0
VERTEX
8
0
10
-0.182812
20
0.843750
0
VERTEX
8
0
10
-0.182812
20
0.845156
0
VERTEX
8
0
10
-0.181406
20
0.846562
0
VERTEX
8
0
10
-0.180000
20
0.846562
0
VERTEX
8
0
10
-0.177187
20
0.849375
0
VERTEX
8
0
10
-0.172969
20
0.849375
0
VERTEX
8
0
10
-0.171563
20
0.847969
0
VERTEX
8
0
10
-0.170156
20
0.847969
0
VERTEX
8
0
10
-0.168750
20
0.846562
0
VERTEX
8
0
10
-0.163125
20
0.846562
0
VERTEX
8
0
10
-0.161719
20
0.845156
0
VERTEX
8
0
10
-0.146250
20
0.845156
0
VERTEX
8
0
10
-0.144844
20
0.843750
0
VERTEX
8
0
10
-0.143437
20
0.843750
0
VERTEX
8
0
10
-0.142031
20
0.842344
0
VERTEX
8
0
10
-0.140625
20
0.842344
0
VERTEX
8
0
10
-0.139219
20
0.840938
0
VERTEX
8
0
10
-0.135000
20
0.840938
0
VERTEX
8
0
10
-0.137813
20
0.840938
0
VERTEX
8
0
10
-0.139219
20
0.839531
0
VERTEX
8
0
10
-0.180000
20
0.839531
0
VERTEX
8
0
10
-0.181406
20
0.840938
0
VERTEX
8
0
10
-0.185625
20
0.840938
0
SEQEND
0
POLYLINE
8
0
66
1
0
VERTEX
8
0
10
-0.163125
20
0.288281
0
VERTEX
8
0
10
-0.140625
20
0.271406
0
VERTEX
8
0
10
-0.127969
20
0.265781
0
VERTEX
8
0
10
-0.122344
20
0.267187
0
VERTEX
8
0
10
-0.123750
20
0.277031
0
VERTEX
8
0
10
-0.149062
20
0.337500
0
VERTEX
8
0
10
-0.140625
20
0.357187
0
VERTEX
8
0
10
-0.132187
20
0.367031
0
VERTEX
8
0
10
-0.125156
20
0.329062
0
VERTEX
8
0
10
-0.116719
20
0.313594
0
VERTEX
8
0
10
-0.111094
20
0.316406
0
VERTEX
8
0
10
-0.106875
20
0.365625
0
VERTEX
8
0
10
-0.109687
20
0.407812
0
VERTEX
8
0
10
-0.098437
20
0.421875
0
VERTEX
8
0
10
-0.092812
20
0.421875
0
VERTEX
8
0
10
-0.090000
20
0.413437
0
VERTEX
8
0
10
-0.094219
20
0.385313
0
VERTEX
8
0
10
-0.091406
20
0.379688
0
VERTEX
8
0
10
-0.074531
20
0.399375
0
VERTEX
8
0
10
-0.063281
20
0.423281
0
VERTEX
8
0
10
-0.063281
20
0.448594
0
VERTEX
8
0
10
-0.046406
20
0.452813
0
VERTEX
8
0
10
-0.032344
20
0.469687
0
VERTEX
8
0
10
-0.050625
20
0.416250
0
VERTEX
8
0
10
-0.050625
20
0.410625
0
VERTEX
8
0
10
-0.046406
20
0.409219
0
VERTEX
8
0
10
-0.026719
20
0.423281
0
VERTEX
8
0
10
-0.008438
20
0.442969
0
VERTEX
8
0
10
0.002812
20
0.468281
0
VERTEX
8
0
10
0.004219
20
0.482344
0
VERTEX
8
0
10
0.014062
20
0.497812
0
VERTEX
8
0
10
0.023906
20
0.499219
0
VERTEX
8
0
10
0.035156
20
0.509062
0
VERTEX
8
0
10
0.009844
20
0.454219
0
VERTEX
8
0
10
0.012656
20
0.451406
0
VERTEX
8
0
10
0.019688
20
0.454219
0
VERTEX
8
0
10
0.037969
20
0.469687
0
VERTEX
8
0
10
0.059062
20
0.502031
0
VERTEX
8
0
10
0.060469
20
0.528750
0
VERTEX
8
0
10
0.087188
20
0.547031
0
VERTEX
8
0
10
0.071719
20
0.497812
0
VERTEX
8
0
10
0.073125
20
0.493594
0
VERTEX
8
0
10
0.082969
20
0.499219
0
VERTEX
8
0
10
0.101250
20
0.514687
0
VERTEX
8
0
10
0.109687
20
0.528750
0
VERTEX
8
0
10
0.115312
20
0.542813
0
VERTEX
8
0
10
0.113906
20
0.570937
0
VERTEX
8
0
10
0.133594
20
0.589219
0
VERTEX
8
0
10
0.126562
20
0.547031
0
VERTEX
8
0
10
0.126562
20
0.537187
0
VERTEX
8
0
10
0.132187
20
0.535781
0
VERTEX
8
0
10
0.143437
20
0.551250
0
VERTEX
8
0
10
0.156094
20
0.580781
0
VERTEX
8
0
10
0.156094
20
0.613125
0
VERTEX
8
0
10
0.165937
20
0.649687
0
VERTEX
8
0
10
0.172969
20
0.638437
0
VERTEX
8
0
10
0.177187
20
0.606094
0
VERTEX
8
0
10
0.181406
20
0.603281
0
VERTEX
8
0
10
0.185625
20
0.607500
0
VERTEX
8
0
10
0.189844
20
0.624375
0
VERTEX
8
0
10
0.191250
20
0.658125
0
VERTEX
8
0
10
0.178594
20
0.724219
0
VERTEX
8
0
10
0.188437
20
0.715781
0
VERTEX
8
0
10
0.208125
20
0.687656
0
VERTEX
8
0
10
0.210938
20
0.689063
0
VERTEX
8
0
10
0.210938
20
0.696094
0
VERTEX
8
0
10
0.188437
20
0.752344
0
VERTEX
8
0
10
0.178594
20
0.763594
0
VERTEX
8
0
10
0.164531
20
0.772031
0
VERTEX
8
0
10
0.150469
20
0.793125
0
VERTEX
8
0
10
0.177187
20
0.780469
0
VERTEX
8
0
10
0.184219
20
0.781875
0
VERTEX
8
0
10
0.184219
20
0.788906
0
VERTEX
8
0
10
0.158906
20
0.815625
0
VERTEX
8
0
10
0.137813
20
0.821250
0
VERTEX
8
0
10
0.116719
20
0.835313
0
VERTEX
8
0
10
0.084375
20
0.839531
0
VERTEX
8
0
10
0.074531
20
0.845156
0
VERTEX
8
0
10
0.165937
20
0.849375
0
VERTEX
8
0
10
0.196875
20
0.855000
0
VERTEX
8
0
10
0.239062
20
0.876094
0
VERTEX
8
0
10
0.260156
20
0.898594
0
VERTEX
8
0
10
0.870469
20
0.898594
0
VERTEX
8
0
10
0.870469
20
-0.078750
0
VERTEX
8
0
10
0.852187
20
0.257344
0
VERTEX
8
0
10
0.846562
20
0.258750
0
VERTEX
8
0
10
0.824062
20
0.229219
0
VERTEX
8
0
10
0.814219
20
0.354375
0
VERTEX
8
0
10
0.810000
20
0.360000
0
VERTEX
8
0
10
0.805781
20
0.357187
0
VERTEX
8
0
10
0.788906
20
0.306563
0
VERTEX
8
0
10
0.780469
20
0.405000
0
VERTEX
8
0
10
0.776250
20
0.409219
0
VERTEX
8
0
10
0.770625
20
0.403594
0
VERTEX
8
0
10
0.755156
20
0.375469
0
VERTEX
8
0
10
0.735469
20
0.493594
0
VERTEX
8
0
10
0.731250
20
0.497812
0
VERTEX
8
0
10
0.727031
20
0.493594
0
VERTEX
8
0
10
0.718594
20
0.466875
0
VERTEX
8
0
10
0.715781
20
0.465469
0
VERTEX
8
0
10
0.670781
20
0.577969
0
VERTEX
8
0
10
0.666562
20
0.582187
0
VERTEX
8
0
10
0.663750
20
0.579375
0
VERTEX
8
0
10
0.659531
20
0.545625
0
VERTEX
8
0
10
0.611719
20
0.658125
0
VERTEX
8
0
10
0.606094
20
0.663750
0
VERTEX
8
0
10
0.601875
20
0.660937
0
VERTEX
8
0
10
0.593437
20
0.621563
0
VERTEX
8
0
10
0.510469
20
0.734062
0
VERTEX
8
0
10
0.504844
20
0.732656
0
VERTEX
8
0
10
0.507656
20
0.715781
0
VERTEX
8
0
10
0.506250
20
0.697500
0
VERTEX
8
0
10
0.468281
20
0.732656
0
VERTEX
8
0
10
0.457031
20
0.738281
0
VERTEX
8
0
10
0.424687
20
0.772031
0
VERTEX
8
0
10
0.421875
20
0.773438
0
VERTEX
8
0
10
0.417656
20
0.766406
0
VERTEX
8
0
10
0.417656
20
0.735469
0
VERTEX
8
0
10
0.379688
20
0.752344
0
VERTEX
8
0
10
0.362812
20
0.756563
0
VERTEX
8
0
10
0.357187
20
0.760781
0
VERTEX
8
0
10
0.375469
20
0.762188
0
VERTEX
8
0
10
0.382500
20
0.766406
0
VERTEX
8
0
10
0.385313
20
0.786094
0
VERTEX
8
0
10
0.381094
20
0.790312
0
VERTEX
8
0
10
0.364219
20
0.794531
0
VERTEX
8
0
10
0.268594
20
0.836719
0
VERTEX
8
0
10
0.248906
20
0.839531
0
VERTEX
8
0
10
0.194062
20
0.835313
0
VERTEX
8
0
10
0.185625
20
0.832500
0
VERTEX
8
0
10
0.182812
20
0.828281
0
VERTEX
8
0
10
0.199687
20
0.793125
0
VERTEX
8
0
10
0.215156
20
0.787500
0
VERTEX
8
0
10
0.222187
20
0.787500
0
VERTEX
8
0
10
0.232031
20
0.793125
0
VERTEX
8
0
10
0.234844
20
0.769219
0
VERTEX
8
0
10
0.257344
20
0.770625
0
VERTEX
8
0
10
0.271406
20
0.776250
0
VERTEX
8
0
10
0.270000
20
0.760781
0
VERTEX
8
0
10
0.296719
20
0.757969
0
VERTEX
8
0
10
0.327656
20
0.749531
0
VERTEX
8
0
10
0.248906
20
0.741094
0
VERTEX
8
0
10
0.229219
20
0.735469
0
VERTEX
8
0
10
0.216562
20
0.727031
0
VERTEX
8
0
10
0.220781
20
0.721406
0
VERTEX
8
0
10
0.239062
20
0.712969
0
VERTEX
8
0
10
0.240469
20
0.708750
0
VERTEX
8
0
10
0.227813
20
0.686250
0
VERTEX
8
0
10
0.202500
20
0.653906
0
VERTEX
8
0
10
0.196875
20
0.632812
0
VERTEX
8
0
10
0.199687
20
0.631406
0
VERTEX
8
0
10
0.213750
20
0.639844
0
VERTEX
8
0
10
0.215156
20
0.596250
0
VERTEX
8
0
10
0.222187
20
0.565312
0
VERTEX
8
0
10
0.233437
20
0.540000
0
VERTEX
8
0
10
0.236250
20
0.538594
0
VERTEX
8
0
10
0.240469
20
0.542813
0
VERTEX
8
0
10
0.247500
20
0.559688
0
VERTEX
8
0
10
0.262969
20
0.532969
0
VERTEX
8
0
10
0.279844
20
0.516094
0
VERTEX
8
0
10
0.295312
20
0.507656
0
VERTEX
8
0
10
0.327656
20
0.503437
0
VERTEX
8
0
10
0.327656
20
0.521719
0
VERTEX
8
0
10
0.341719
20
0.513281
0
VERTEX
8
0
10
0.362812
20
0.513281
0
VERTEX
8
0
10
0.385313
20
0.507656
0
VERTEX
8
0
10
0.412031
20
0.507656
0
VERTEX
8
0
10
0.414844
20
0.511875
0
VERTEX
8
0
10
0.403594
20
0.535781
0
VERTEX
8
0
10
0.440156
20
0.555469
0
VERTEX
8
0
10
0.442969
20
0.558281
0
VERTEX
8
0
10
0.440156
20
0.565312
0
VERTEX
8
0
10
0.445781
20
0.559688
0
VERTEX
8
0
10
0.451406
20
0.562500
0
VERTEX
8
0
10
0.466875
20
0.579375
0
VERTEX
8
0
10
0.462656
20
0.585000
0
VERTEX
8
0
10
0.445781
20
0.583594
0
VERTEX
8
0
10
0.468281
20
0.610312
0
VERTEX
8
0
10
0.469687
20
0.645469
0
VERTEX
8
0
10
0.461250
20
0.646875
0
VERTEX
8
0
10
0.445781
20
0.642656
0
VERTEX
8
0
10
0.444375
20
0.660937
0
VERTEX
8
0
10
0.437344
20
0.667969
0
VERTEX
8
0
10
0.405000
20
0.679219
0
VERTEX
8
0
10
0.376875
20
0.682031
0
VERTEX
8
0
10
0.375469
20
0.677812
0
VERTEX
8
0
10
0.393750
20
0.656719
0
VERTEX
8
0
10
0.399375
20
0.622969
0
VERTEX
8
0
10
0.390937
20
0.601875
0
VERTEX
8
0
10
0.385313
20
0.575156
0
VERTEX
8
0
10
0.375469
20
0.597656
0
VERTEX
8
0
10
0.355781
20
0.569531
0
VERTEX
8
0
10
0.351562
20
0.577969
0
VERTEX
8
0
10
0.340312
20
0.573750
0
VERTEX
8
0
10
0.331875
20
0.573750
0
VERTEX
8
0
10
0.324844
20
0.577969
0
VERTEX
8
0
10
0.302344
20
0.573750
0
VERTEX
8
0
10
0.296719
20
0.577969
0
VERTEX
8
0
10
0.302344
20
0.579375
0
VERTEX
8
0
10
0.305156
20
0.585000
0
VERTEX
8
0
10
0.279844
20
0.597656
0
VERTEX
8
0
10
0.286875
20
0.608906
0
VERTEX
8
0
10
0.271406
20
0.627188
0
VERTEX
8
0
10
0.281250
20
0.630000
0
VERTEX
8
0
10
0.275625
20
0.653906
0
VERTEX
8
0
10
0.285469
20
0.645469
0
VERTEX
8
0
10
0.288281
20
0.648281
0
VERTEX
8
0
10
0.289687
20
0.677812
0
VERTEX
8
0
10
0.302344
20
0.669375
0
VERTEX
8
0
10
0.320625
20
0.693281
0
VERTEX
8
0
10
0.322031
20
0.683437
0
VERTEX
8
0
10
0.327656
20
0.680625
0
VERTEX
8
0
10
0.355781
20
0.697500
0
VERTEX
8
0
10
0.358594
20
0.697500
0
VERTEX
8
0
10
0.361406
20
0.689063
0
VERTEX
8
0
10
0.395156
20
0.693281
0
VERTEX
8
0
10
0.403594
20
0.683437
0
VERTEX
8
0
10
0.416250
20
0.689063
0
VERTEX
8
0
10
0.420469
20
0.679219
0
VERTEX
8
0
10
0.428906
20
0.673594
0
VERTEX
8
0
10
0.464062
20
0.672187
0
VERTEX
8
0
10
0.458437
20
0.656719
0
VERTEX
8
0
10
0.464062
20
0.652500
0
VERTEX
8
0
10
0.483750
20
0.649687
0
VERTEX
8
0
10
0.480937
20
0.621563
0
VERTEX
8
0
10
0.517500
20
0.601875
0
VERTEX
8
0
10
0.497812
20
0.596250
0
VERTEX
8
0
10
0.492188
20
0.590625
0
VERTEX
8
0
10
0.493594
20
0.585000
0
VERTEX
8
0
10
0.507656
20
0.576562
0
VERTEX
8
0
10
0.551250
20
0.569531
0
VERTEX
8
0
10
0.563906
20
0.561094
0
VERTEX
8
0
10
0.570937
20
0.554063
0
VERTEX
8
0
10
0.542813
20
0.547031
0
VERTEX
8
0
10
0.537187
20
0.540000
0
VERTEX
8
0
10
0.538594
20
0.534375
0
VERTEX
8
0
10
0.607500
20
0.497812
0
VERTEX
8
0
10
0.589219
20
0.502031
0
VERTEX
8
0
10
0.582187
20
0.500625
0
VERTEX
8
0
10
0.575156
20
0.486563
0
VERTEX
8
0
10
0.659531
20
0.438750
0
VERTEX
8
0
10
0.667969
20
0.428906
0
VERTEX
8
0
10
0.670781
20
0.420469
0
VERTEX
8
0
10
0.639844
20
0.421875
0
VERTEX
8
0
10
0.637031
20
0.419063
0
VERTEX
8
0
10
0.638437
20
0.414844
0
VERTEX
8
0
10
0.658125
20
0.392344
0
VERTEX
8
0
10
0.687656
20
0.375469
0
VERTEX
8
0
10
0.714375
20
0.350156
0
VERTEX
8
0
10
0.684844
20
0.357187
0
VERTEX
8
0
10
0.684844
20
0.348750
0
VERTEX
8
0
10
0.703125
20
0.319219
0
VERTEX
8
0
10
0.715781
20
0.305156
0
VERTEX
8
0
10
0.745312
20
0.289687
0
VERTEX
8
0
10
0.746719
20
0.284062
0
VERTEX
8
0
10
0.742500
20
0.277031
0
VERTEX
8
0
10
0.724219
20
0.289687
0
VERTEX
8
0
10
0.720000
20
0.286875
0
VERTEX
8
0
10
0.721406
20
0.281250
0
VERTEX
8
0
10
0.765000
20
0.233437
0
VERTEX
8
0
10
0.779062
20
0.210938
0
VERTEX
8
0
10
0.763594
20
0.216562
0
VERTEX
8
0
10
0.755156
20
0.216562
0
VERTEX
8
0
10
0.753750
20
0.212344
0
VERTEX
8
0
10
0.831094
20
0.046406
0
VERTEX
8
0
10
0.853594
20
-0.049219
0
VERTEX
8
0
10
0.864844
20
-0.133594
0
VERTEX
8
0
10
0.867656
20
-0.146250
0
VERTEX
8
0
10
0.870469
20
-0.147656
0
VERTEX
8
0
10
0.870469
20
-0.900000
0
VERTEX
8
0
10
-0.030937
20
-0.900000
0
VERTEX
8
0
10
0.161719
20
-0.880312
0
VERTEX
8
0
10
0.381094
20
-0.788906
0
VERTEX
8
0
10
0.407812
20
-0.774844
0
VERTEX
8
0
10
0.620156
20
-0.615938
0
VERTEX
8
0
10
0.632812
20
-0.603281
0
VERTEX
8
0
10
0.760781
20
-0.417656
0
VERTEX
8
0
10
0.840938
20
-0.201094
0
VERTEX
8
0
10
0.842344
20
-0.170156
0
VERTEX
8
0
10
0.826875
20
0.008438
0
VERTEX
8
0
10
0.818437
20
0.042187
0
VERTEX
8
0
10
0.811406
20
0.052031
0
VERTEX
8
0
10
0.804375
20
0.073125
0
VERTEX
8
0
10
0.725625
20
0.243281
0
VERTEX
8
0
10
0.715781
20
0.258750
0
VERTEX
8
0
10
0.607500
20
0.360000
0
VERTEX
8
0
10
0.590625
20
0.381094
0
VERTEX
8
0
10
0.563906
20
0.400781
0
VERTEX
8
0
10
0.450000
20
0.448594
0
VERTEX
8
0
10
0.434531
20
0.454219
0
VERTEX
8
0
10
0.426094
20
0.451406
0
VERTEX
8
0
10
0.413437
20
0.464062
0
VERTEX
8
0
10
0.352969
20
0.486563
0
VERTEX
8
0
10
0.293906
20
0.493594
0
VERTEX
8
0
10
0.184219
20
0.497812
0
VERTEX
8
0
10
0.080156
20
0.479531
0
VERTEX
8
0
10
0.057656
20
0.469687
0
VERTEX
8
0
10
-0.025312
20
0.416250
0
VERTEX
8
0
10
-0.074531
20
0.352969
0
VERTEX
8
0
10
-0.066094
20
0.352969
0
VERTEX
8
0
10
-0.035156
20
0.368437
0
VERTEX
8
0
10
-0.025312
20
0.369844
0
VERTEX
8
0
10
0.012656
20
0.364219
0
VERTEX
8
0
10
0.026719
20
0.350156
0
VERTEX
8
0
10
0.053437
20
0.299531
0
VERTEX
8
0
10
0.061875
20
0.260156
0
VERTEX
8
0
10
0.061875
20
0.243281
0
VERTEX
8
0
10
0.056250
20
0.227813
0
VERTEX
8
0
10
0.030937
20
0.202500
0
VERTEX
8
0
10
0.009844
20
0.198281
0
VERTEX
8
0
10
-0.028125
20
0.215156
0
VERTEX
8
0
10
-0.029531
20
0.212344
0
VERTEX
8
0
10
-0.023906
20
0.203906
0
VERTEX
8
0
10
-0.025312
20
0.198281
0
VERTEX
8
0
10
-0.035156
20
0.189844
0
VERTEX
8
0
10
-0.047813
20
0.188437
0
VERTEX
8
0
10
-0.066094
20
0.199687
0
VERTEX
8
0
10
-0.097031
20
0.236250
0
VERTEX
8
0
10
-0.099844
20
0.233437
0
VERTEX
8
0
10
-0.095625
20
0.227813
0
VERTEX
8
0
10
-0.095625
20
0.216562
0
VERTEX
8
0
10
-0.102656
20
0.202500
0
VERTEX
8
0
10
-0.112500
20
0.194062
0
VERTEX
8
0
10
-0.126562
20
0.194062
0
VERTEX
8
0
10
-0.144844
20
0.213750
0
VERTEX
8
0
10
-0.156094
20
0.236250
0
VERTEX
8
0
10
-0.143437
20
0.226406
0
VERTEX
8
0
10
-0.112500
20
0.213750
0
VERTEX
8
0
10
-0.105469
20
0.216562
0
VERTEX
8
0
10
-0.106875
20
0.227813
0
VERTEX
8
0
10
-0.158906
20
0.268594
0
VERTEX
8
0
10
-0.163125
20
0.288281
0
SEQEND
0
POLYLINE
8
0
66
1
0
VERTEX
8
0
10
-0.057656
20
0.859219
0
VERTEX
8
0
10
-0.056250
20
0.860625
0
VERTEX
8
0
10
-0.056250
20
0.863437
0
VERTEX
8
0
10
-0.054844
20
0.864844
0
VERTEX
8
0
10
-0.054844
20
0.866250
0
VERTEX
8
0
10
-0.052031
20
0.869062
0
VERTEX
8
0
10
-0.042187
20
0.869062
0
VERTEX
8
0
10
-0.040781
20
0.867656
0
VERTEX
8
0
10
-0.033750
20
0.867656
0
VERTEX
8
0
10
-0.032344
20
0.866250
0
VERTEX
8
0
10
-0.028125
20
0.866250
0
VERTEX
8
0
10
-0.026719
20
0.864844
0
VERTEX
8
0
10
-0.022500
20
0.864844
0
VERTEX
8
0
10
-0.021094
20
0.863437
0
VERTEX
8
0
10
-0.018281
20
0.863437
0
VERTEX
8
0
10
-0.016875
20
0.862031
0
VERTEX
8
0
10
-0.015469
20
0.862031
0
VERTEX
8
0
10
-0.014062
20
0.860625
0
VERTEX
8
0
10
-0.012656
20
0.860625
0
VERTEX
8
0
10
-0.011250
20
0.859219
0
VERTEX
8
0
10
-0.009844
20
0.859219
0
VERTEX
8
0
10
-0.008438
20
0.857812
0
VERTEX
8
0
10
-0.008438
20
0.856406
0
VERTEX
8
0
10
-0.009844
20
0.857812
0
VERTEX
8
0
10
-0.012656
20
0.857812
0
VERTEX
8
0
10
-0.014062
20
0.856406
0
VERTEX
8
0
10
-0.043594
20
0.856406
0
VERTEX
8
0
10
-0.045000
20
0.855000
0
VERTEX
8
0
10
-0.056250
20
0.855000
0
VERTEX
8
0
10
-0.057656
20
0.856406
0
VERTEX
8
0
10
-0.057656
20
0.859219
0
SEQEND
0
ENDSEC
0
EOF
